<svg xmlns="http://www.w3.org/2000/svg" width="666" height="761" viewBox="0 0 666 761" fill="none"><style>.a{fill:black;}</style><g clip-path="url(#clip0)"><path d="M273.4 68.8C277.4 71.4 272.6 73.7 273.4 78.2 270.6 78.6 271.9 74.8 269.8 74.5 270.1 71.7 272.8 71.3 273.4 68.8Z" class="a"/><path d="M232.3 80.1C229.3 88.6 236 83.2 234.9 90.5 241.8 89.8 242.1 93.2 248.6 88.6 250.3 97.5 236.2 100 233.1 95.2 231.8 95.5 232.3 97.6 232.2 99 223.1 97 225.1 83.6 217.5 80.1 222.8 78.3 226 83.2 232.3 80.1Z" class="a"/><path d="M231.3 103.7C232 105.6 233.3 107.3 234.9 108.5 236.5 109.7 238.5 110.3 240.5 110.3 237.3 115.5 227.5 108.8 231.3 103.7Z" class="a"/><path d="M214.9 121.6C214.2 126.3 210.9 128.2 207.6 130.1 208 125.2 211.5 123.5 214.9 121.6Z" class="a"/><path d="M203 133.9C204.1 133.7 204.6 134.1 204.8 134.8 199.3 146.7 198.1 163.1 192 174.4 191.7 177.6 193.3 182.6 189.4 182 192.4 167.7 196.7 147.9 203 133.9Z" class="a"/><path d="M188.4 182.9C187.1 195.1 173 202.3 173.7 219.7 169.9 221 170.7 227.2 166.4 228.2 166 244.5 154.8 249.5 150.9 262.1 150.5 255.5 154.5 245.1 160.9 242.3 162.6 233 165.1 224.7 171 219.7 173.4 203.9 180.6 193.1 188.4 182.9Z" class="a"/><path d="M186.5 197C188.3 197.7 189 199.6 189.2 201.8 186.4 202.2 186.4 199.8 186.5 197Z" class="a"/><path d="M285.3 246.1C287.1 246.7 287.7 248.6 287.9 250.8 287.1 251.2 286.3 251.6 286.1 252.7 283.8 251.4 284.5 248.5 285.3 246.1Z" class="a"/><path d="M137.2 280C138.7 287 125.5 294.9 122.5 303.6 121.7 294 134.3 286 137.2 280Z" class="a"/><path d="M116.1 309.4C119.5 311.8 117.4 321.5 124.3 320.7 119.9 324.2 115.2 329.4 116.1 337.7 104.9 334.6 117.7 327.2 117 320.7 115.4 318.7 111.8 318.7 107.9 318.8 110.1 314.8 114.9 314 116.1 309.4Z" class="a"/><path d="M207.6 321.5C199.7 329.3 175.2 316.3 167.3 315.9 181.9 312.6 193.8 323.9 207.6 321.5Z" class="a"/><path d="M248.7 350.8H251.4V360.2C248.5 358.7 248 353.3 248.7 350.8Z" class="a"/><path d="M404.2 433.7C405.8 433.7 407.3 434 408.7 434.7 410.1 435.3 411.4 436.3 412.4 437.5 409.2 438.4 406.7 436.1 404.2 433.7Z" class="a"/><path d="M104.2 450.7H108.8C109.2 453.3 102.7 455.3 104.2 450.7Z" class="a"/><path d="M203 450.7C205.3 450.7 205.2 454.2 203.9 455.4 201.6 455.3 201.8 451.9 203 450.7Z" class="a"/><path d="M88.7 455.4C88.5 459.3 84.2 459 81.4 460.1 83.5 456.2 85 457.2 88.7 455.4Z" class="a"/><path d="M189.3 479C190.8 478.7 190.9 479.9 191.9 479.9 186.9 492.1 199.4 486.9 201 494.1 196.5 494.3 195.2 491.3 191 491.3 189.8 489.6 189.1 487.5 188.8 485.4 188.5 483.2 188.6 481.1 189.3 479Z" class="a"/><path d="M96 481.8C100 483.2 96 487.2 96.9 491.2 93.6 490.6 95.3 484.1 96 481.8Z" class="a"/><path d="M391.4 494C395.9 494.5 390.9 498.3 391.4 500.6 387.5 499.4 391.5 496.7 391.4 494Z" class="a"/><path d="M449.9 496.9C451.5 494.2 454.4 500.7 452.6 501.6 449.8 502.1 452 497.3 449.9 496.9Z" class="a"/><path d="M106.1 503.5C107 513.3 103 526.1 98.7 533.7 101 523.5 103.2 513.1 106.1 503.5Z" class="a"/><path d="M91.4 506.3C94.5 506.8 93.5 514.8 92.3 516.7 91.5 515.1 90.9 513.4 90.8 511.6 90.6 509.8 90.8 508 91.4 506.3Z" class="a"/><path d="M393.2 506.3H395.9C396.2 508.3 395.2 508.8 394.9 510.1 393.4 509.9 393 508.5 393.2 506.3Z" class="a"/><path d="M80.4 514.8C81.7 517.5 83.3 523.9 82.3 526.1 80.9 522.5 80.3 518.7 80.4 514.8Z" class="a"/><path d="M57.6 515.7C62.4 516.1 59.4 524.5 62.2 527 58.9 525 58.6 520.1 57.6 515.7Z" class="a"/><path d="M403.3 520.5C403.2 521.7 402.7 522.8 401.8 523.7 401 524.6 399.9 525.1 398.7 525.2 398.1 521.5 400.7 521.1 403.3 520.5Z" class="a"/><path d="M92.3 529.9C94.1 531.2 92.8 535.7 94.2 537.4 90.6 538 93.1 532.3 92.3 529.9Z" class="a"/><path d="M83.2 531.8C86.8 531.5 83.5 538.4 85.8 539.3 83.6 542 82.9 535 83.2 531.8Z" class="a"/><path d="M323.8 535.6C324.3 541 319.4 541 319.2 545.9 315.2 543.4 319.5 535.6 323.8 535.6Z" class="a"/><path d="M74.1 546.9C77.4 549.1 77.8 554.3 77.7 560.1 74.7 557.5 75.5 551 74.1 546.9Z" class="a"/><path d="M67.7 547.8C71.6 547.2 69.1 553.2 71.3 554.4 69.4 556.6 66.9 551.5 67.7 547.8Z" class="a"/><path d="M416.1 557.2C420.9 557.2 425.2 557.9 427 561 425.9 558.9 418.3 560.6 420.7 562 419.3 563.9 416.8 559.1 416.1 557.2Z" class="a"/><path d="M83.2 559.1C85.5 559.1 85 562.3 85 564.8 82.7 564.7 83.2 561.6 83.2 559.1Z" class="a"/><path d="M124.3 559.1C127.3 562.5 123.1 566.6 123.4 570.4 120.8 567.3 123.7 561.8 124.3 559.1Z" class="a"/><path d="M77.7 562C82.4 565 82.4 572.8 83.2 579.9 80.2 575.1 79.3 568.2 77.7 562Z" class="a"/><path d="M342 567.6C338.4 567.8 334.3 571 331.9 569.5 333.2 566.6 341.5 562.9 342 567.6Z" class="a"/><path d="M85 571.4C88.5 572.3 88.5 580.5 87.7 582.7 85.2 580.7 86.5 574.5 85 571.4Z" class="a"/><path d="M119.8 577C123 579.7 118.4 587.3 117.1 593.1 116.5 596 119.1 601.7 114.5 601.6 115.1 592.3 118.5 585.7 119.8 577Z" class="a"/><path d="M183.8 578.9C185.9 582.4 184.1 589.8 184.7 595 183.2 590.5 180.1 583.2 183.8 578.9Z" class="a"/><path d="M419.7 578.9C421.4 579 422.9 579.6 424.2 580.6 425.5 581.6 426.5 583 427 584.6 424.5 582.8 420.6 582.5 419.7 578.9Z" class="a"/><path d="M409.7 579.9C412.8 581.7 416.6 582.8 417 587.4 415.3 586.8 413.8 585.8 412.5 584.5 411.2 583.2 410.3 581.6 409.7 579.9Z" class="a"/><path d="M406.9 583.5C404.9 594.1 413.6 593.6 414.3 601.5 407.2 601.8 403.3 592.5 401.4 584.5 404.1 587.4 403.5 582.7 406.9 583.5Z" class="a"/><path d="M108.8 590.3C111.9 591.4 109.2 601.7 107 603.4 106 597.4 109.8 596.3 108.8 590.3Z" class="a"/><path d="M393.2 593.1C395.7 590.8 396.4 594.6 398.7 594V601.6C396.2 599.4 396.3 594.6 393.2 593.1Z" class="a"/><path d="M103.3 595.9C105.3 596.5 104.2 601.7 103.3 602.5 99.4 601.3 104.2 599.4 103.3 595.9Z" class="a"/><path d="M398.7 603.4C401.3 603.3 401.3 605.7 401.3 608.2 399.9 607.3 398.3 606.4 398.7 603.4Z" class="a"/><path d="M375.8 604.4C379.3 604.4 379.2 611.6 378.5 612.9 377.7 610 375.6 608.4 375.8 604.4Z" class="a"/><path d="M373.1 608.2C376.1 608.5 374.5 613.6 374.9 616.7 372.6 615.7 372 609.8 373.1 608.2Z" class="a"/><path d="M134.4 616.7C135.7 616.7 137 616.5 137 617.6V619.5H132.6C133.2 618.5 134.7 618.5 134.4 616.7Z" class="a"/><path d="M362.1 617.6C366.7 618.9 360.9 624 361.2 627 358.5 624.5 363.3 621.5 362.1 617.6Z" class="a"/><path d="M81.4 619.5C82.1 624.3 78.7 624.9 75.9 626.1 77.1 623.2 78.2 620.3 81.4 619.5Z" class="a"/><path d="M353.9 621.4C356 622.1 354.8 627.2 352.1 626.1 351.3 623.1 353.5 623.1 353.9 621.4Z" class="a"/><path d="M91.4 623.3C95.1 625.5 90.3 632.8 90.5 637.4 89.5 635 90.7 627 91.4 623.3Z" class="a"/><path d="M363.9 624.3C365.9 625.5 364.9 631.5 362.1 630.9 362.5 628.6 363.1 626.4 363.9 624.3Z" class="a"/><path d="M367.6 625.1H370.2C371.2 630.6 367.6 631.1 368.4 636.4 369 636.5 369.6 636.3 370 636 370.5 635.6 370.9 635.1 371.1 634.6 369.3 643.7 372.9 657.6 370.1 669.5 366.5 667.2 370.9 664.6 370.1 660 366.6 659.5 370.4 666.5 366.5 665.7 367.9 656.3 367.9 646.8 366.5 637.4 362.8 637.1 364.6 642.3 362.8 644 359.9 639.1 364.3 637.7 360.2 634.6 365.6 634.3 365.7 628.8 367.6 625.1Z" class="a"/><path d="M11 626.1C13.3 625.6 14.6 631 12.8 631.7 9.5 632.6 11.5 628 11 626.1Z" class="a"/><path d="M359.4 628C361.9 630.7 358.3 635 357.5 637.4 355 634.7 358.6 630.3 359.4 628Z" class="a"/><path d="M393.2 628C396.1 627.5 396.1 630 395.9 632.7 393.2 633 394.1 629.7 393.2 628Z" class="a"/><path d="M96 631.7C99.6 639.5 96.4 649.1 97.8 658.1 94.2 658.7 96.7 652.9 96 650.6 89.8 649.8 93.4 636.7 96 631.7Z" class="a"/><path d="M98.7 632.7C100.1 635.4 101.9 641.4 100.6 644 97.1 643.3 99.4 636.4 98.7 632.7Z" class="a"/><path d="M81.4 633.6C84.2 635.7 79.8 644.7 76.8 646.8 77.6 641.7 80.4 638.6 81.4 633.6Z" class="a"/><path d="M33.8 641.2C33.5 643.7 31.4 644.3 29.2 644.9 29.1 642 31.6 641.7 33.8 641.2Z" class="a"/><path d="M39.3 643C38.6 644.6 37.6 646 36.3 647.1 35.1 648.3 33.6 649.1 32 649.6 32.7 645.7 36.5 644.9 39.3 643Z" class="a"/><path d="M356.6 646C358.5 647.4 357.9 654.1 354.8 653.5 354 649.5 356.6 649 356.6 646Z" class="a"/><path d="M75 651.5C75.4 656.4 71.5 664.9 67.7 668.5 67.7 660.4 72.5 657.2 75 651.5Z" class="a"/><path d="M86.9 652.5C88.9 652.5 87.3 656.5 87.8 658.1 85.3 658.1 85.6 653.7 86.9 652.5Z" class="a"/><path d="M78.6 653.4C82.4 654.8 77.6 659.4 77.7 662.9 74.9 660.2 78.3 656 78.6 653.4Z" class="a"/><path d="M101.5 666.6C105.7 673.4 101.3 684.8 104.1 694 107 694.4 104.5 689.3 107.8 690.2 107.2 700.5 108.8 710.1 109.6 721.3 106.7 720.8 108.2 715.9 107 713.8 106.2 714.2 105.3 714.6 105.1 715.6 102.8 713.7 103.4 708.7 103.3 704.3 107.3 705.7 105.8 701.2 105.9 698.7 103.3 697.7 104.3 700.8 104.1 702.5 100.4 698.7 101.8 689.8 100.4 683.6 97.1 689.4 102.3 699 99.5 704.3 96.2 695.2 98.3 678.7 96.9 670.4 99.2 669.9 100.8 670.4 101.5 666.6Z" class="a"/><path d="M66.7 670.4C69.2 672.7 66.7 677.8 64.1 677.9 63.8 674.3 65.9 673.1 66.7 670.4Z" class="a"/><path d="M59.4 674.2C56.3 677.5 57.4 685.3 52.1 686.4 55.5 683.3 53.9 675.1 59.4 674.2Z" class="a"/><path d="M492 683.6C494.4 683.3 495 684.9 494.6 687.4H492V683.6Z" class="a"/><path d="M532.2 689.2C533 693.6 520.7 693.3 520.3 690.2 524.6 688.1 528.2 690.8 532.2 689.2Z" class="a"/><path d="M455.4 690.2V692.9C453.5 693.3 453 692.3 451.8 692 452 690.4 453.3 689.9 455.4 690.2Z" class="a"/><path d="M492 690.2V692.9C490.1 693.3 489.6 692.3 488.3 692 488.5 690.4 489.9 689.9 492 690.2Z" class="a"/><path d="M584.4 692.1C586.2 693.7 585.6 692.1 588.1 692.1 588.5 695 587.3 696.3 584.4 695.9V692.1Z" class="a"/><path d="M563.4 694C564.1 698 558.5 697.2 558.8 694 560.5 692.1 561 693.9 563.4 694Z" class="a"/><path d="M568.8 693V696.8C566.4 697.1 564.9 696.5 565.1 694.1 566.8 694.1 567.1 692.8 568.8 693Z" class="a"/><path d="M539.7 694C541.3 694.2 541.7 695.6 541.5 697.7 534 696.6 525 699.2 518.6 697.7 522.9 692.5 534.6 697.2 539.7 694Z" class="a"/><path d="M554.2 694H557.8C558.1 696.5 555.9 696.4 554.2 696.7V694Z" class="a"/><path d="M468.2 695.8C473.7 696.3 475.7 695.5 479.2 696.8 476.5 697.5 467.5 700.3 468.2 695.8Z" class="a"/><path d="M480.1 695.8C490.2 696.2 503.3 695.1 509.4 696.8 500.2 699.6 486.5 700 480.1 695.8Z" class="a"/><path d="M59.4 696.8C62 698.1 58.7 701 58.5 702.5 55.3 700.6 59.6 698.7 59.4 696.8Z" class="a"/><path d="M585.3 698.7V702.5C581.4 701.3 579.4 703.1 577 701.5 578.6 698.3 581.8 701 585.3 698.7Z" class="a"/><path d="M568.8 700.6C562.3 705.8 548.1 702.1 533.1 703.3 533.5 698.6 537.9 701.6 540.5 701.4 549.6 700.9 560.2 698.5 568.8 700.6Z" class="a"/><path d="M509.4 703.4C490.5 705.1 471.6 704.7 460 702.5 473.9 700 494.1 701 509.4 703.4Z" class="a"/><path d="M631 700.6C633.8 699.9 634.3 701.5 636.5 701.5 635.5 702.7 629.8 705.5 631 700.6Z" class="a"/><path d="M438 705.3C439.9 704.9 441.9 705.2 443.5 706.2 443.7 708.8 438 708 438 705.3Z" class="a"/><path d="M584.4 707.2C582.6 712.1 578.4 708.9 575.3 709.1 541.4 710.6 503.6 713.4 469.2 707.2 510.2 709.1 550.2 707.1 584.4 707.2Z" class="a"/><path d="M628.3 706.2C630.6 706 632.2 706.6 631.9 708.9 629.5 709.3 627.3 709.4 628.3 706.2Z" class="a"/><path d="M98.7 707.2C101.4 707.2 102 717.6 98.7 717.5V707.2Z" class="a"/><path d="M603.6 714.7C582.5 716 561.1 716.8 540.4 717.5 543.4 712.4 550.9 714.8 556.8 714.7 562.1 714.5 567.9 713.2 574.2 712.8 584.1 712.2 595.8 711.3 603.6 714.7Z" class="a"/><path d="M445.3 716.5C448.8 717.2 453.7 717.5 459.1 718.4 456.5 720.6 447.4 719.9 445.3 716.5Z" class="a"/><path d="M597.2 721.3C551.5 725.7 505.6 725.4 460 720.4 476.8 715.5 494.2 723.1 506.6 719.4 532.7 725.9 572.3 716.9 597.2 721.3Z" class="a"/><path d="M334.7 723.2C338.6 724.8 345 723.9 346.6 727.9 342.7 730 338.4 723.4 334.7 727.9V723.2Z" class="a"/><path d="M492 727.9C491.2 730.6 482.5 728.4 479.2 727.9 481 724 488.6 727.4 492 727.9Z" class="a"/><path d="M580.7 728.9C550.4 730.5 521.6 733.1 492.9 728.9 504.7 726.3 521.3 729.6 538.6 728.9 551.2 728.3 563.9 727.1 573.4 727 575.7 726.9 579.9 724.5 580.7 728.9Z" class="a"/><path d="M604.5 729.8C605.5 730 605.2 731.5 605.4 732.5 593.2 732.2 575.9 736.7 562.4 736.3 572.1 729.8 592.8 733.8 604.5 729.8Z" class="a"/><path d="M337.4 731.7C336.6 733.1 334.5 733 332.9 733.6 332.2 730.3 336.1 730.1 337.4 731.7Z" class="a"/><path d="M310.9 731.7C310.5 735.9 309 733.1 306.3 734.4 306 731.7 309.3 732.6 310.9 731.7Z" class="a"/><path d="M561.5 735.5C555.9 740.2 547.1 736.2 537.8 737.4 542.7 733.1 554.3 734.2 561.5 735.5Z" class="a"/><path d="M379.5 738.3C375.7 737.5 371.9 739.5 370.3 738.3 371.7 735.9 379.6 734.1 379.5 738.3Z" class="a"/><path d="M349.3 737.3C348 739.5 342.9 737.7 340.2 738.3 340.3 734.3 347.5 737 349.3 737.3Z" class="a"/><path d="M367.6 737.3C367.6 739.7 364.2 739.6 363 738.3 363.2 737.9 363.5 737.5 363.9 737.2 364.2 736.9 364.6 736.7 365.1 736.6 365.5 736.6 366 736.6 366.4 736.7 366.9 736.8 367.3 737 367.6 737.3Z" class="a"/><path d="M609 736.4C610.1 736.5 609.8 738.1 610 739.2 596.1 738.1 582.2 742.5 567.8 741.9 579.7 737 593.7 739.5 609 736.4Z" class="a"/><path d="M613.6 736.4C615.9 737.4 620 735.8 621.9 737.3 620.7 739.4 613.5 741 613.6 736.4Z" class="a"/><path d="M238.7 738.3C233 743.8 216.6 737.2 209.4 740.1 217.3 735.7 227.6 739.4 238.7 738.3Z" class="a"/><path d="M321 737.3C312.4 742.8 296.2 740.3 287.1 741.1 295.9 736.2 308 738.6 321 737.3Z" class="a"/><path d="M207.6 738.3C201 741.5 193.5 742.2 186.5 740.1 193.4 738.7 200.5 738 207.6 738.3Z" class="a"/><path d="M500.2 739.2C501.8 737.1 507.2 738.9 510.2 738.3 511.2 739.5 511.2 741.8 512.1 743 518.3 744.2 522.5 742.1 527.6 744.9 527.2 747 523.1 745.3 521.2 745.8 523.8 751.6 535.7 747.9 540.4 750.6 533.2 753.3 518.5 750.1 510.2 748.7 510.9 746.5 515.4 748.3 517.6 747.7 516.7 743.9 510.8 745.2 507.5 743.9V740.2C505 740.4 502.5 740.1 500.2 739.2Z" class="a"/><path d="M521.2 740.2C520.9 743.3 514.7 742.1 514.8 739.2 516.7 737.3 519.2 739.5 521.2 740.2Z" class="a"/><path d="M178.3 740.2C178 743.3 173 741.6 170.1 742.1 170.5 739.1 177.1 739.4 178.3 740.2Z" class="a"/><path d="M273.4 740.2C270.8 744.3 258.8 738.6 257 741.1 255.6 737.6 270.3 739.2 273.4 740.2Z" class="a"/><path d="M382.2 743.9C361.8 743.9 348.4 745.5 333.8 744.9 337.5 740.8 348.5 742.9 358.5 742.2 365.9 741.4 376.8 738.3 382.2 743.9Z" class="a"/><path d="M331 743.9C325.7 747.3 306.7 745.7 300.8 745.8 309.7 744 325.8 741 331 743.9Z" class="a"/><path d="M620.9 743.9C615.2 747.4 607.1 744.7 595.3 745.8 602.2 741.1 613.4 743.1 620.9 743.9Z" class="a"/><path d="M280.7 743.9C274.1 747.6 251.5 746.6 242.3 743.9 251.5 742.7 267 744.8 280.7 743.9Z" class="a"/><path d="M298.1 744.9C297.9 747.8 293.6 746.5 290.8 746.8 290.2 743.1 295.8 745.7 298.1 744.9Z" class="a"/><path d="M444.4 744.9C443.2 750 437.7 745.9 432.5 747.6 434.1 744.3 440.3 745.6 444.4 744.9Z" class="a"/><path d="M463.6 744.9C466.3 747.9 460 747.8 458.1 746.8 458.1 744.1 463.8 747.5 463.6 744.9Z" class="a"/><path d="M551.4 745.8C547.7 748.5 543 747.2 539.5 746.8 543.2 744.3 546.5 745.6 551.4 745.8Z" class="a"/><path d="M585.3 744.9C582.4 749.7 577.2 745.9 572.5 747.6 573.4 743.4 582.7 747.5 585.3 744.9Z" class="a"/><path d="M389.6 746.8C390.6 751.2 380.9 747.7 376.8 749.5 376.5 749.7 375.4 753.3 375.9 753.3 369.6 753.5 377.9 753.7 375 750.6 372.8 748.1 342.3 749.2 334.7 749.6 327.2 750 320.5 752.3 315.5 750.6 340.6 745.8 365.7 748.1 389.6 746.8Z" class="a"/><path d="M404.2 746.8C403.1 752.1 396.1 747.1 390.5 748.7 392.6 743.9 398.2 748 404.2 746.8Z" class="a"/><path d="M430.7 745.8C426.3 750.7 415.6 746.9 410.6 748.5 412.5 744.1 421.2 746.8 430.7 745.8Z" class="a"/><path d="M554.2 745.8H566C566 748.9 554.3 748.9 554.2 745.8Z" class="a"/><path d="M633.7 751.5C630.1 751.1 625 752.3 622.7 750.6 624.1 748.1 633.5 746.2 633.7 751.5Z" class="a"/><path d="M643.8 750.6C641.3 750.6 641.9 752.1 640.1 750.6 640 750.2 640 749.9 640 749.6 640.1 749.3 640.2 749 640.4 748.7 640.5 748.4 640.8 748.2 641.1 748.1 641.3 747.9 641.6 747.9 642 747.9 642.3 747.9 642.6 747.9 642.9 748.1 643.1 748.2 643.4 748.4 643.5 748.7 643.7 749 643.8 749.3 643.9 749.6 643.9 749.9 643.9 750.2 643.8 750.6Z" class="a"/><path d="M310.9 751.5C308.2 750.7 305.4 750.7 302.7 751.5 303.8 750.2 311.4 745.7 310.9 751.5Z" class="a"/><path d="M620.9 749.6C612.6 752.8 595.7 755 590.8 750.6 600.7 750.8 611.1 748 620.9 749.6Z" class="a"/><path d="M438.9 750.6H442.6C442.9 753 440.7 753 438.9 753.3V750.6Z" class="a"/><path d="M445.3 750.6H449.9C450.8 753.7 447.1 752 445.3 752.4V750.6Z" class="a"/><path d="M470 752.4C467.9 751.9 465.7 751.9 463.6 752.4 462.5 749.4 471.2 749.4 470 752.4Z" class="a"/><path d="M547.8 750.6C551.1 753.3 543.5 752.3 541.4 752.4 541.7 748.1 546.2 753.8 547.8 750.6Z" class="a"/><path d="M589.8 751.5C581.5 755 570.7 752.9 556.9 753.4 568 749.1 579.5 751.8 589.8 751.5Z" class="a"/><path d="M401.4 751.5H407.9C408 755.2 402 754.5 401.4 751.5Z" class="a"/><path d="M523.1 754.3C522.7 756.4 518.2 755.1 517.6 754.3 518.8 750.3 520.6 754.3 523.1 754.3Z" class="a"/><path d="M269.8 753.4C273.2 753.4 272.4 754.4 275.3 753.4 276.5 756.3 268.5 756.3 269.8 753.4Z" class="a"/><path d="M179.2 755.2V758C177.6 757.7 174.6 758.9 175.6 756.1 176.6 755.4 177.9 755.1 179.2 755.2Z" class="a"/><path d="M189.3 755.2C189.1 759.8 187.2 756.5 183.8 757.1 184.6 755.5 186.6 755.1 189.3 755.2Z" class="a"/><path d="M618.2 758.1H610.9C611.8 754.3 616.7 754.7 618.2 758.1Z" class="a"/><path d="M655.7 755.2C658.1 755 660.3 754.9 659.3 758 657.6 757.7 655.5 757.7 655.7 755.2Z" class="a"/><path d="M665.7 758.1C663.1 758.9 663.4 756.7 661.2 757.1 660.9 754.7 667.3 753.9 665.7 758.1Z" class="a"/><path d="M447.2 480.9C437.8 450.6 413.6 419.1 370.3 430 369.3 425.7 374.4 427.8 373 423.4 377.3 425.2 382 422.3 386.7 422.4 406.8 423.1 423.8 439.4 437.9 451.6 444.1 462.8 449.3 474.4 453.5 486.5 458.2 499 459.1 502.3 460.8 518.6 462.9 538.6 463.8 558.8 463.4 578.9 463.2 583.7 464.2 589.7 463.4 593.1 462.8 595.8 458.8 601.7 457.9 607.2 456.6 615.2 457.9 622.2 455.3 628.9 453.5 631.9 451.9 635.1 450.7 638.4 450.3 639.7 444.4 646.4 445.2 645 440.2 653.7 438.3 662.3 434.3 670.4 432 670 430.7 671.1 426.9 671.4V675.1C426.7 678.1 429.6 672.7 429.6 676.1 427.2 678.7 425.7 682 425.2 685.5 424.7 689.1 425.3 692.7 426.9 695.9 429.6 695.9 428.1 691.4 429.6 690.2 433.3 690.2 431.4 694.4 432.3 694.9 436.1 696 432.2 689.2 436.9 691.2 440.6 690.9 437.4 693.1 437.8 694.9 441.7 694 440.4 687.6 444.2 686.4 444.6 690.2 441.3 693.3 443.3 695.9 447.5 695.5 444.2 688.2 449.7 691.2 451.1 694.5 446.6 691.7 447.1 693.9 450.4 697.9 457.8 694.3 464.5 696.6 446 698.7 435.1 696 416.9 697.5 429.9 703 449.2 695.8 458.1 703.2 446.9 703 430.5 700.5 419.6 703.2 423.3 705.9 431 704.1 435.2 706 431.6 707.6 426.3 704.7 424.2 707.9 425.3 711.6 429.5 710.1 432.5 709.8 466.2 714.7 503.2 712.5 538.5 715.5 496.2 722.9 441.8 708.2 387.6 710.8 371.1 711.5 350.8 709.3 344.7 699.4 342.9 701.2 342.4 699.4 340.1 699.4 323.5 686.3 315.8 665.1 305.3 643.8 304.1 645.7 301.4 646 300.8 648.5 285.5 650.6 264.8 645.1 266 622.1 264.6 620.8 263.3 619.2 262.4 617.4 256.1 618.5 255.1 615.7 246.8 616.5 245.8 611 248.4 609.3 248.6 605.2 254.7 605.3 259.7 611.1 265.1 608.9 268.8 604.9 266.1 594.2 266.9 587.2 259.6 578.1 257 564.2 247.7 557 244.9 556.3 246 559.6 243.2 558.9 243.9 574.1 235.5 589.3 237.7 604.2 238.1 606.9 242.2 612.2 241.3 618.3 239.9 629.2 228.4 633.1 227.6 643.8 232 643.3 231.5 637.8 233.1 634.4 239.7 631.2 240.6 622 245.9 617.4 243.5 628.8 247 634.6 248.5 647.5 244 652.4 237.6 648.6 233 650.3 224.2 653.7 220.7 669 211 673.8 203.2 677.7 197.6 675.5 186.4 673.8 181.4 660.3 194.8 658 201.9 651.2 204.8 643.8 208.4 637.1 214.7 633.3 225.2 602.8 212.8 562.3 210.1 530.5 210.1 527.6 208.2 526.8 207.5 524.9 211.9 493.5 195.1 476.2 182.8 458.9 177.5 465.3 177.8 477.6 173.6 485.3 175.2 490.7 180 492.6 179.1 500.3 199.4 540 191.5 597.7 186.5 646.5 185.9 653.3 184.3 660 181.9 666.3 179.5 671.5 176.6 681.3 173.6 688.9 172 693 168.2 696.1 166.3 700.2 164.7 703.8 165.3 707.5 163.7 710.6 162.6 712.6 159.6 713.8 158.2 716.3 156.8 718.8 156.9 722.2 155.6 724.8 154.3 727.3 149.5 729.8 148.3 732.3 147.2 735.1 145.7 737.7 143.7 739.8 142.3 741.4 140 742 140 744.6 146.6 745.3 157.5 739.6 168.4 740.8 163.5 743.5 156 743.6 147.3 746.5 176.3 745.8 203.6 740.6 241.5 743.6 242.9 747.6 236.4 743.4 237.8 747.4 247.3 751.2 264.2 745.7 277.2 749.3 257.2 752.7 224.7 750.5 201.3 751.1 212.6 745.7 223.7 749.8 236 747.4 224.2 743.1 203.5 745.2 191.3 747.4 191.3 752.2 196.3 747.6 198.6 751.1 179.2 754.1 157.5 752.3 135.4 754.9 135.7 760.2 139.4 751.8 140 756.8 137.9 761.8 130.1 756.8 128.1 756.8 116.8 756.6 101.4 761.4 86.9 760.6 76.8 760 69.3 754.6 60.4 754 53.8 747.8 50.6 743.8 42 739.8 21.6 714.8 8.1 684.7 2.6 652.5 -2.3 620.1-0.4 587 8.1 555.3 9.7 549.9 12.6 543.5 14.5 536.5 15.7 532.6 17.2 528.8 19.1 525.2 22.2 519.3 24.4 512.1 26.4 508.2 26.7 507.8 28.9 507.8 29 507.3 29.6 506 28.5 503.9 29 502.6 29.5 501.2 32.4 499.8 33.6 497.8 40.9 485.9 44.1 478.3 53.8 468.6 57.7 465.1 62 461.9 66.5 459.2 67.8 458.3 68.1 455 72 455.4 73.3 455.1 72.8 453.1 72.9 451.6 90.6 446.5 112.4 442.8 134.2 449.8 144.8 440.3 138.9 425.3 150.7 416.8 151.4 416.2 153.7 417.4 154.3 416.8 165.1 406.8 164.1 384.9 170.8 365.8 174.3 356 178.7 350.4 180.9 339.4 184.9 339.2 179.4 346.7 182.7 348.9 184.9 348.9 185.3 347.3 188.2 347.9 185.5 343.4 186.3 340 190.8 338.5 179.6 332.5 163.2 328.1 150.6 330 146.7 333.6 144 338.3 137.7 339.4 137.3 351.7 136.5 368.1 122.2 363 121.5 360.1 123.1 359.6 123.1 357.3 118.9 358.7 115.7 361 111.2 362.1 112 357.5 113.1 353.3 116.7 351.7V356.4C121.6 355.8 124.1 347.7 130.4 351.7 132.2 351.1 132.9 349.2 133.1 347 131.1 343.8 126.3 348.5 124.8 346 125 341.4 128.9 340.8 127.5 334.7 119.6 334.3 116.4 347.2 109.2 350.8 94.9 353.5 98.2 336.4 93.6 327.2 94 323.8 96.6 322.6 100 322.5 96.8 329.8 98.1 343.1 102.7 347.9 112.1 347 117.6 342 119.1 332.8 134.3 330.3 144.9 323.3 160.3 324.3 172.9 325.2 184.4 332.5 196.9 332.8 215.1 333.4 232.6 329.7 248.1 339.4V342.1C257.9 344 262.8 350.9 270 355.4 280.1 346.3 264.8 336.6 259.1 333.7 260.4 327.9 255.9 328.2 254.5 325.2 248 327.1 247.3 327.9 240.8 325.2 242.7 315.3 246.7 296.1 243.4 284.6 242 286.3 242.2 289.6 241.6 292.2 239.2 285.3 241.6 276.8 241.6 271.4 236.9 280.5 236.9 299.2 237.9 311 238.3 307.5 238.9 304.1 239.7 300.6 241.9 305.1 240.1 313.5 240.7 319.6 240 318.8 239.1 318.2 238.1 318.1 237.1 317.9 236 318.1 235.2 318.7 232.6 306.8 237.8 291.8 236.1 277.2 232.7 290.4 231.5 304.1 232.4 317.7 228.1 315.3 228.1 317.7 224.2 316.8 223.5 322.4 232.1 316.4 232.4 322.5 225.2 320.9 217.2 323.9 209.6 323.4 210.9 319.1 217.9 320.7 221.5 318.7 221.5 307.3 220.2 294.8 226.9 290.4 230.5 275.8 224.6 260.9 222.4 246.1 221 237.1 222.7 227.4 218.7 220.6 215.8 219.6 216.5 222.1 215.1 222.5 209.3 237.5 201.3 251.5 191.4 264 191.6 265 193.2 264.7 193.2 265.9 183.2 282.2 171 295.7 164.8 315.9 157 317.6 152.5 312.6 149.3 316.8 144.8 316 151.4 313.5 148.4 312.1 145.3 311.1 146.9 315 146.6 316.8 140.9 316.8 137.1 319.1 131.9 319.5 132.2 315.1 143 317.5 140.2 312.9 140.5 311.2 135.1 316.4 134.7 313.8 135.4 311.6 139.1 310.5 139.2 305.4 141.7 304.7 141 307.3 141.9 308.1 145.3 301.5 148.4 294.7 150.9 287.7 154.5 287.7 153.3 292.2 155.5 291.5 159.1 291.5 159.2 287.8 160 284.9 159.1 285.5 159.1 287.1 157.4 286.8 157.8 285.9 158 284.9 158 283.9 158 283 157.8 282 157.4 281.1 167 281.1 164.5 268.3 172 266 172 264.3 170.9 264 171.1 262.3 179 259.2 175.9 252.9 176.6 245.3 184.9 243.2 187.8 234.9 186.6 225.5 185.6 222.5 179.8 224.4 181.1 218.9 184.8 222 184.3 220.9 188.5 218.9 188.7 222.5 191.1 223.1 194 221.6 195.8 221.3 194.2 217.4 196.6 217.8 192.8 215.1 191.1 205.3 190.2 202.7 194.8 206 199.1 209.8 203 214 203.4 213 204 212 204.8 211.2 205.6 210.4 206.5 209.7 207.6 209.3 204.5 204.6 200.4 201 197.5 196.1 197.3 192.5 198.3 195.8 200.2 195.2 201.8 183.4 206.5 174.7 210.2 165 210.8 153.3 210 140.2 212.8 131.1 217.4 140.2 207.4 164.4 216.5 172.5 214.7 181.6 216.7 188.3 218.3 196.1H222C222.8 186.9 226.5 180.7 228.4 172.5 231.9 171.2 228.6 176.7 232.1 175.4 235.3 165.5 225.6 151.9 232.1 144.3 234.5 147.1 229.4 162.4 237.5 164.1 237.5 174.2 241 180.5 241.2 190.5 241.3 194.2 239.8 190.2 238.6 192.4 238.6 197.1 241 199.2 241.2 203.7 242 206.7 238.2 204.9 238.6 207.4 244.1 222.7 234.5 236.5 242.2 250.9 251 209.7 250.1 170.3 248.6 122.6 246.5 121.9 243.9 122.6 243.1 118.9 237.3 118.7 234.6 126.1 233.1 133 236.2 134.6 239 136.8 241.3 139.6 241 142.8 238.2 143.4 235.8 144.3 235.7 141.6 238.9 142.5 237.6 138.7 235.3 137.3 233.7 135.1 231.2 133.9 230.7 127.4 234.8 125.8 234.9 119.8 235.2 117.3 229.6 120.7 231.2 117.1 236 116.3 243.5 116.3 249.7 115.2 248.1 113.2 242.7 113 241.4 111.4 245.3 108.3 256.1 111.6 260.6 104.8 261.7 105 261.4 106.5 261.5 107.5 266.5 104.3 274 99.1 273.4 93.4 270.8 93.4 271.1 96.1 269.8 97.2 268.3 96.2 269.1 92.8 267.1 92.4 266.8 88 270.9 88.2 269.8 83 273.4 83.4 274.8 86 277.1 87.7 281.7 85.3 282.8 79.1 282.6 71.7 281.9 67.7 275.5 69.6 277.1 63.2 275.5 63.1 275.2 64.4 273.4 64.2 277.1 58.5 267.7 59 268.9 52.8 258.3 50 248.9 50.1 236 51 234.9 55.8 238.4 59.4 240.5 55.7 242.9 60.1 248.9 60.9 251.5 65.1 251.6 69.2 247.7 64.1 246 64.2 245.6 67.1 247.6 67.5 246.9 70.8 234.3 75.6 232.2 65.5 229.6 54.7 226.4 55.9 228.7 62.7 223.1 61.3 224.2 46.5 217.7 43.4 207.6 41.6 206.3 36.1 209.4 35.3 210.2 32.1 216.1 32.6 222 32 227.6 30.2 229.2 16.8 239 11.8 244.1 1.9 246.2 3.2 251.5 1.3 254.1 0.1 264.6 8.7 282.5-4.1 295.3 3.8 297.7 12 302.1 19.2 303.5 27.4 303.9 29.5 302.6 32.8 303.5 34.9 307.2 43.6 321.4 42.4 320.9 53.9 317.5 54.3 312.3 57 310.8 53.9 306.4 59.1 303.1 65.2 301.2 71.8 299.3 78.5 298.9 85.5 299.9 92.3 307.4 92.3 315.2 94.6 323.6 96.1 327.4 102.5 336.1 99.3 339.2 107.4 349.9 107.4 352.3 115.7 359.3 119.6 358.7 120.6 357.2 120.6 357.5 122.4 360.1 122.8 366.6 124.9 364.8 132.7 371.8 137.4 370.6 150.7 374.8 158.2 375 161.2 372.4 161.3 373 164.8 379.6 168.3 371.8 184.1 377.6 186.5 378.4 191.1 374.6 190.9 375.8 195.9 375.3 198 377.5 197.3 377.6 198.7 379.9 215.8 374.5 236.6 383.1 247.7 384.6 249.7 389.6 252.1 391.3 256.2 391.3 259.8 392 264.4 389.5 265.6 389.8 266.9 391.8 266.4 393.1 266.5 389.8 274.7 396.4 287.9 402.3 289.2 404.1 291.7 402.3 298 406.9 297.7 408.2 306.7 410.2 317.3 408.7 325 405.6 340.9 391.7 343.6 380.3 348.6 381.7 372.3 358 367.3 347.5 377.3 347.1 381.2 348.9 387.5 344.9 387.6 347.5 402.2 351.8 416.5 357.7 430.1 363.5 431.1 363.6 435.8 370.4 433.8 370.7 436.3 366.9 434.6 367.8 437.6 371.7 438.7 376.3 434.3 380.6 434.9V438.7C382.5 438.3 384.4 437.7 386.1 436.8 384.9 433 384.2 437 381.5 436.8 381.8 432.2 393.9 433 394.3 436.8 391.2 437.5 390.8 435.4 387.9 435.8 389 440.3 392.1 437.6 396.2 439.6 398.8 439 395.3 437.6 396.2 435.8 418.4 440.8 427.8 456.1 439.2 473.5 441.7 469.3 435.7 466.8 435.5 462.2 441.4 466.1 442.1 475.7 447.2 480.9ZM252.4 15.1C249.4 13.1 248.3 9.2 243.2 9.4 239.7 14 235.7 18 233.2 23.6 238.4 29.8 246.5 28.3 254.2 25.5 258.3 13.9 274.5 15 281.7 6.5 271.1 1.5 262.9 14 252.4 15.1ZM271.6 31.1C271.6 28.9 273.1 28.4 272.5 25.5H269.9C268.5 28.3 268.9 30.1 271.6 31.1ZM251.5 33.8C247 31.8 237.8 31.7 231.3 31.1 234.1 37.1 247.8 37.5 251.5 34V33.8ZM293.6 37.6C296 37.5 298.8 32.9 296.2 31 296 32.1 295.2 31.6 294.4 31 293.1 32.6 291.6 35.7 293.5 37.7L293.6 37.6ZM288.1 38.5C280.9 37.7 270 36.8 264.4 41.2 270.5 44.7 283.5 38.1 289.1 43.9 289.3 42.3 290.7 41.8 292.7 42 295.7 45.5 307.2 49.5 311 45.8 305.7 41.4 296.4 39.7 288 38.7L288.1 38.5ZM241.4 43.4C245.7 45 248.3 43.7 254.2 43.4 254.4 41.1 254.4 38.8 252.4 38.7 249.9 41.4 242 38.7 241.4 43.4ZM291.7 97.2C293.9 94.8 291.3 92 289.9 90.6 289.5 91.1 289.3 91.7 289.2 92.4 289.1 93 289.1 93.7 289.3 94.3 289.5 94.9 289.8 95.5 290.2 96 290.6 96.5 291.1 96.9 291.7 97.1V97.2ZM274.3 104.7C278.2 102 286.8 95.5 283.5 91.5 281.7 97.1 275.7 98.5 274.3 104.7V104.7ZM302.7 95.2C297.5 98.9 291.6 101.9 287.2 106.5 284.5 107 276.3 109 277.1 116 279.3 119 283.3 112.9 285.4 116 281.3 117.8 279.4 121.8 275.3 123.5 275 120.6 277.4 119 275.3 116.9 270.4 114.7 271 118.8 267.1 119.6 267.6 117.2 266.7 116.2 264.4 116.9 261.6 121.9 270.4 125.9 266.3 132 263 129.1 263.6 122.2 259.9 119.8 258 116.7 256.2 124.4 254.4 121.6 248.1 137.5 254.6 160.4 254.4 178.2 254.2 182.1 254.8 185.9 256.2 189.5 257.1 195.1 257.4 200.8 257.1 206.5 261.7 208.4 260.3 216.4 263.5 219.7 266.1 202.7 265.9 183.7 269.9 170.7 278.6 142 288 115.1 305.4 98.1 305.2 97.4 304.8 96.8 304.4 96.4 303.9 95.9 303.3 95.5 302.7 95.2ZM266.1 109.4C269.4 109.4 273.5 110.1 273.5 106.7 273.8 103.7 270.8 109.1 270.8 105.7 271.8 104.2 275.8 100.9 273.5 99.1 272.1 103.7 266.6 104 266.1 109.4H266.1ZM298.2 303.6V297C302 291.2 301.8 271.4 302.7 268.7 300.4 271.9 301.4 278.7 297.2 280 300.5 267.4 301.5 252.4 303.6 238.5 301.7 237.3 301 239 298.2 237.6 300.5 244 300.9 254.2 296.3 258.4 293 255.3 298.9 248.5 294.5 247 293.1 248.5 294.2 252.5 290.8 251.7 291.1 248.7 289.2 247.8 289.9 244.2 283.5 246.4 287.3 233.3 281.7 232 287.3 229.8 281.7 228.6 281.7 224.4 285.7 224.4 285.1 229.1 289 229.1 291.1 226.4 289.3 221.9 289 218.7 285.5 217.4 288.8 223 285.4 221.5V216.9C286.3 216.9 287.2 217.2 288 217.8V209.3C290.2 208.4 289.9 209 293.5 208.4 292.9 213 295.9 214.1 295.3 218.7 301.3 218.7 302.7 223.8 304.5 228.2 305.3 226.1 306.6 224.2 308.2 222.6 309.5 223.8 308.6 227.2 310.8 227.3 311.4 215.1 311 199.7 304.4 198 305.3 194.9 302.7 188.1 301.8 183.9 305.9 186.4 304.2 184.2 308.2 182.9 308.5 188.4 306.7 195.8 311.8 196.2 314.5 178.2 318.3 158.2 316.4 141.5 316.1 138.3 313.6 145.1 312.7 141.5 315.4 131.4 320.1 123.3 320.1 110.3 315.3 113 318.7 124.1 313.6 126.4 313.6 123.9 314 120.9 312.7 119.8 309.8 118.9 311.5 122.9 309.1 122.5 306.7 119.3 306.5 113.8 305.4 109.3 307.1 106.9 311.3 107.2 310.9 102.7 305.3 100 304.6 109.8 300.8 112.1 303.7 112.1 306.3 118.6 302.7 119.7V115C299.3 115.6 299.8 120.3 297.2 121.6 297 120.9 296.4 120.5 295.4 120.7 295.2 118 298.4 118.9 297.2 115 281.4 131.5 278.4 161 269.8 184.8 275.9 183.6 275 175.2 281.7 174.4 285.7 164.2 294.2 158.5 299 149 299 143.4 294.9 141.9 295.4 135.8 302.2 135.9 303.5 128.8 308.2 124.5 307.2 129.7 305.5 134.4 300.8 135.8 299.4 143.6 303.7 145.4 303.5 151.8 300.6 153.8 300.2 158.4 295.3 158.4 289.7 170.9 277.9 177 272.4 189.5H269.8C262.8 226 276.2 263.3 279.8 298.1 283.4 299.5 283 304.9 287.1 305.6 287.8 310.6 291.1 309 293.5 313.2 293.9 309.5 295.5 306.1 298.1 303.6H298.2ZM324.7 120.7C324.5 113.9 331.7 114.7 331.1 107.5 327.9 108.2 327.2 106.5 325.6 105.6 322.5 109.3 322.9 115.7 324.6 120.7H324.7ZM329.2 128.2C332.2 129.4 330 125.2 332.9 126.3 332.9 131 329.7 135.7 331.1 140.5 331.4 141.5 333.8 142.8 333.8 144.3 333.8 156.1 328.8 167.5 332 182 333.7 189.7 333.6 202.4 337.5 210.3 342.5 205.2 344.3 199.2 349.4 196.1 349.9 197.5 348.3 201 350.3 200.8 357.4 192.1 361.2 180.1 364.9 167.8 359.7 167 362.5 174.7 357.6 174.4 358.5 167.8 363.6 165.5 362.2 156.5 348.9 159.6 356.6 178.8 347.5 188.6 345.8 183.2 352.4 181.7 349.4 178.2 350.2 181.5 346.4 179.8 345.7 179.1 344.1 180.7 345.4 185.1 342 184.8 341.3 180.9 343.8 180.4 343.9 177.3 338.1 170.7 347.9 154.9 342 144.3 343.2 144.3 343.3 145.5 344.8 145.2 343.9 135.6 347.4 128.9 347.4 117.9 341.5 119.1 348.5 112.6 343.8 112.2 342.7 114.7 341.2 117 339.2 118.8 338.6 116.5 340.4 112 338.3 111.3 336.2 111.6 337.4 115.4 334.6 115 333.4 112.2 338 108.6 333.7 108.4 331.7 114.5 328.1 118.9 329.2 128.2H329.2ZM350.3 126.3C353.3 126.5 352.5 123 354 121.6 351.3 121.8 350.1 123.3 350.1 126.3H350.3ZM321 137.7C322.9 137.9 322.9 136.4 323.7 135.8 326 137.6 321.7 140.7 325.5 141.4 326.4 138.1 326.7 134.6 326.4 131.1 325.2 131.1 325.1 129.8 323.8 130.1 323.3 133.1 320.8 134.1 321 137.7H321ZM356.7 147.1C357 143.9 360.2 143.7 359.5 139.6 355.9 139.3 352.6 145.5 356.6 147.1H356.7ZM364 193.2C366.8 192.6 370.8 186.4 366.7 184.7 364.9 187.2 364 190.2 363.9 193.3L364 193.2ZM367.7 197C371.7 197.4 372.7 194.6 372.3 190.4 369.9 191.9 367.2 192.8 367.6 197L367.7 197ZM333.9 216.8C334.6 222.9 332.5 226.1 332 230.9 338.1 231.5 345 221.9 351.2 227.2 348.8 221.7 356.6 215.6 360.4 216.8 360.7 220.9 355.3 219.1 355.8 223.4 363.5 220.3 366.7 212.5 372.3 207.4 369.9 207.6 371.5 203.7 368.6 204.5 366 207 366.3 212.2 363.1 214 360.5 210.4 365.5 208 364.9 203.6 363.2 203.3 363.1 204.9 362.3 205.5 361.6 202.2 363.7 201.9 363.2 198.9 360.3 199.9 360.8 199.3 358.7 197.9 350.7 204.8 345.4 214.1 333.8 216.9L333.9 216.8ZM237.8 217.7C236.6 210.4 238.6 204.6 235.2 198.7 234.6 203.9 234.8 213.5 237.7 217.8L237.8 217.7ZM326.4 210.3C325.9 206.8 328.2 200.3 323.8 200.8 323.2 205.4 325.4 207.2 326.4 210.3ZM231.3 212.1C230.8 210.5 232.4 206.7 230.4 206.5 229.2 207.7 228.8 212.1 231.3 212.1H231.3ZM370.3 216.9C373.8 218.8 373.9 212.6 372.2 212.1 371.8 214 369.6 213.9 370.3 216.9H370.3ZM292.6 218.7C292.6 216 293.1 212.5 289.9 213.1 289.6 214.2 289.7 215.4 290.2 216.5 290.7 217.5 291.5 218.3 292.6 218.7H292.6ZM300.8 226.3C301.1 223.8 300.5 222.2 298.2 222.5 297.8 225 298.4 226.6 300.8 226.3H300.8ZM354.8 228.2C357.8 227.2 362.9 228.4 362.1 223.5 359.4 224.7 356 225.3 354.8 228.2H354.8ZM365.8 230.1C367.9 230.5 367.7 228.3 370.3 229.1 369.8 227.7 371.4 224.2 369.4 224.4 368.1 226.2 365.9 227.1 365.9 230.1H365.8ZM331 236.7C331 239.9 330.7 243.2 332.9 244.2 335.2 243.1 337.7 242.2 340.2 241.5 340.4 244.4 346.3 244.2 347.5 243.4 347.5 250.3 358.4 245.6 359.4 249 362.3 248.6 363.4 246.3 366.7 246.3 367.8 243.2 363.7 245.6 364.9 242.5 367.5 243.2 368.8 245.3 373.1 244.4V241.7C371.8 241.1 365.5 238.3 367.6 234.2 364 233.2 365 236.9 361.2 236.1 361 235.2 361 234.4 361.2 233.6 361.4 232.8 361.7 232 362.1 231.3 349.9 229.7 339 231.4 331 236.7ZM288.9 238.5C288.7 236.4 289.1 235 290.7 234.8 292.4 238.1 292.1 243.4 295.3 245.1 295.8 238.3 294.3 233.7 290.7 231 289.3 232.1 286 236.1 288.9 238.5H288.9ZM330.1 252.7C333.2 252.9 335.6 250.2 339.3 251.7 339.5 253.6 338 253.6 337.4 254.5 342.3 254.8 347.7 258 350.2 255.4 349 256.6 349.3 259.5 349.3 262 357.4 262 366.8 262.4 370.4 254.5 366.8 249.4 358.1 255.4 352.1 254.5 352.1 253 354.4 253.7 353.9 251.7 351.7 248.7 346.9 254 344.8 250.8 346.8 251 347.7 250 347.4 248.1 343.7 246.4 343.8 249.7 339.2 249.1 338.9 247.8 337.9 247.3 338.3 245.3 334.3 245.7 327.4 248.3 330.1 252.7ZM304.5 265C304.5 258.8 308.9 248.7 306.3 246 303.8 249.7 303.1 260.3 304.5 265ZM311.8 256.5C312.5 253.7 313.8 251.1 315.5 248.9 314.8 248.5 314.1 248.1 313.3 248 312.5 247.8 311.7 247.8 310.9 248 310.3 250.1 308.6 255.9 311.8 256.5ZM309.2 284.7C312.4 275.7 319.7 261.1 316.5 251.7 316.3 264.6 308.1 274.1 309.1 284.7H309.2ZM342.1 266.8C338.2 264.7 342.4 262.9 342.1 259.3 336.4 258.5 330.9 256.9 325.6 254.6 316 280.5 304.6 304.6 290 325.3 288.7 331.1 295.6 328.3 295.5 332.8 289.4 329.8 274.9 325.2 269.9 336.6 283 341.8 278 359.1 269.9 366.8 270.9 367 271.3 367.8 271.7 368.7 278.3 366.6 280.3 359.5 285.4 358.3 285.6 362.3 281.5 361.8 281.8 365.8 285.9 369.4 292.6 360.4 295.5 360.2 294.8 365.2 289.2 365.1 288.2 369.6 291.7 368.8 294 371.2 295.5 369.6 295.6 371 295.1 373.1 296.4 373.4 296.2 371.3 299.6 373 300.9 372.4 302.6 375.5 305 378 307.9 379.8 310.8 381.6 314 382.6 317.4 382.8 319 379 319.6 374.7 319.2 370.6 316 367.3 308.9 366.3 305.5 365.8 307.4 362.2 308.4 358.2 308.6 354.2 308.7 350.1 308 346 306.5 342.3 304.2 339.5 295.6 338.4 298.2 333.8 301.4 335.3 301.6 337.9 304.6 337.6 304.6 331 312.7 332.7 313.7 327.2 313.7 324.3 310.2 330.1 310.1 327.2 314 321.8 325.9 319.7 325.6 313 323.2 315.3 317.6 319.1 315.6 318.7 315.4 316.9 316.6 316.6 316.5 314.9 321.5 313.8 324.4 310.4 327.5 307.4 330.6 305.8 344.3 297.2 342.1 293.2 334.2 298.2 332 303.4 322 306.4 321.2 309.5 314.2 316.6 312.8 310.2 327.1 300.5 346.2 290.6 350.3 273.4 345.1 282 337.9 289.2 329.3 294.2 328.6 289.7 336.5 289.1 332.9 284.7 331.6 285 330.3 290 329.3 287.5 333.4 279 339.8 277.7 343.9 270.5 342.5 269.2 339.4 274 336.6 274.3 337.5 271 341 270.3 342 266.8H342.1ZM309.2 265C312.2 266.1 311.4 258.6 310.1 258.4 309.7 260.6 308.6 261.9 309.1 265H309.2ZM357.7 281C357.5 278.3 358.4 274.5 355.8 274.4 353.9 276.3 354.5 281.2 357.5 281H357.7ZM303.7 285.7C306.6 285.7 307.4 278.9 305.5 277.2 304.1 279.8 303.4 282.7 303.6 285.7H303.7ZM348.4 289.5C348.2 287.2 353.4 285.9 350.3 283.8 349.7 285.3 345.2 287.3 348.4 289.5H348.4ZM360.3 293.2C359.7 297.6 356.3 299.2 357.7 305.5 362.8 306.9 361.3 314.5 364.1 315.9 364.2 314.8 365.5 314.8 366.7 314.9 371.1 302.7 382.3 297.7 394.1 298 393.5 295.1 396.8 296.1 396 293.2 392.5 290.5 389 294.4 385.9 295.1 385.9 287.6 378 298.9 380.5 289.5 376.1 289.7 374.6 292.9 371.3 294.2 370.8 291.2 374.1 292 373.1 288.5 369 290.6 364.7 292.1 360.3 293.1L360.3 293.2ZM329.2 313C336.3 310.3 345 300 344.8 296.1 339.8 302 333.3 306.2 329.2 313H329.2ZM229.5 308.3C230.7 306.6 231.3 299.5 229.5 298 228.3 299.6 227.8 306.7 229.5 308.3ZM383.2 304.6V309.4C387.1 308.7 390.8 307.9 390.5 302.8 388.2 303.9 385.7 304.5 383.2 304.6ZM224 311.2C226.9 312.5 226.3 305.5 224.9 305.5 224 307.2 223.7 309.2 224 311.2ZM279.8 318.7C282.8 320.4 284.3 319.5 285.3 324.3 286.2 323.1 288.4 323.1 288.9 321.6 287.4 315.7 284.9 310.8 278.9 309.4 278.6 313 280.5 314.5 279.8 318.7ZM331.9 316.8C334.8 317.5 333.7 314.1 336.5 314.9 336.4 313.5 336.8 311.5 335.6 311.2 334.5 313.1 333.1 314.8 331.9 316.8ZM360.3 314.9C360.3 312.8 356.4 314.5 354.8 314 348.7 321.8 332 318.8 330.1 331 328.9 331 328.9 332.2 327.5 331.9 326.1 331.6 326.6 330.2 325.6 330 323.8 332.7 319.2 332.7 318.3 336.6 318.6 339.9 321.7 334.3 322 337.6 320.5 340.7 314.6 343.3 316.5 347 323.1 340.7 339.7 348.3 344.9 338.5V342.3C354.7 344.1 361.9 335.5 366.8 335.7 365.3 337.6 361.9 337.5 362.2 341.3 368 340.6 369.3 337.9 375.9 336.6 375.4 338.1 370.9 340.1 374.1 342.3 376.1 341 378.3 340.1 380.5 339.5V343.3C389.4 340.8 400.8 336 401.6 328.2 400.7 326.5 397.9 331.6 399 325.5 393.7 325.1 389.2 330.5 386.2 329.3 388.6 324.3 397.9 326.3 399 319.9 393 321.4 387.1 323.7 381.6 326.5 380.3 321.4 385.9 323.3 386.2 319.9 378.1 320.4 370.7 327.4 363.3 330.2 364.3 326 370.5 327 370.6 321.7 366.2 321 363.4 326.9 360.5 324.5 360.5 319.9 367.4 322.1 367.9 317.9 362.8 315.1 352.1 322.9 348.7 324.5 350.1 318.6 358.7 317.9 360.3 314.8V314.9ZM326.4 327.2C328.4 325.4 332.3 325.7 331.9 321.5 328.9 321.5 323.8 324.4 326.4 327.2ZM260.6 331H263.3C263.5 328.8 263 327.4 261.4 327.2 261.2 328.4 260.2 329 260.6 331ZM309.1 336.6C314.6 334.7 320.4 333.1 322.8 328.1 318.2 330.9 311.7 331.7 309.1 336.6ZM138 334.7C140.9 333.7 142.8 335.3 143.5 330.9 142.5 330.9 141.6 330.6 140.8 330 140.7 332.4 136.9 331.1 138 334.7L138 334.7ZM196.5 339.4C197.1 351.2 189.5 356.7 191.9 367.7 195 362.9 206.9 363 212.1 367.7 214.3 362.2 215.5 349 215.7 338.4 211.6 335.2 201.3 335.6 196.6 339.4L196.5 339.4ZM222.1 347.9C219.2 348.4 219.3 346.1 217.6 347.9 218.5 351.3 215.5 358.7 219.4 359.2 220.9 353.8 226.8 344.1 223.9 340.2 223.2 341.3 222.6 342.6 222.3 343.9 222 345.2 222 346.6 222.2 347.9L222.1 347.9ZM246.8 363C245.5 362.8 244.2 363.1 243.2 363.9 241.3 374 246.2 377.1 246.8 384.7 250.1 385.9 250.2 384.7 253.2 385.6 255.4 392.9 261.6 398.8 266.9 405.4 267.6 412.8 270.5 418 272.4 424.4 282.9 426.9 303.7 444.3 308.1 422.5 304.9 418 301.2 413.9 297.1 410.2 296.9 411.7 297.4 413.7 296.2 414 291.1 413.3 291.6 406 286.1 408.3 283.8 403.8 280.5 400.2 277.9 396.1 276.9 400.4 281.7 403.5 278.8 406.5 277.9 399.5 272.8 397 272.4 389.5 274.8 390.1 274.4 393.8 277 394.2 274 380.9 270.7 368 262.4 360.3 261.3 364 265 366.8 261.4 367.8 260.3 365.2 260 361.7 258.8 359.3 258.6 361.5 257.6 363.5 256.2 365 253.9 360.1 254.5 352.2 252.5 347.1 251.7 349.3 250.3 344.3 247 346.1L246.8 363ZM323.6 363C328 364 327.9 359.4 325.5 358.2 324.5 359.4 322.9 360 323.8 363L323.6 363ZM223 366.7C223 367.3 223.2 367.9 223.9 367.7 224.3 366.1 225.1 367.9 226.6 367.7V364.9H223.1L223 366.7ZM220.4 365.8H214.9C214.5 370.3 220.9 369.1 220.4 365.8L220.4 365.8ZM238.8 481.8C236.3 483.7 234.1 486 232.3 488.6 229.6 484.8 226.1 486.9 222.2 483.8 222.9 475.4 225.8 469.4 227.7 462.1 221.3 455.3 233.7 448 230.3 441.4 227.1 444.1 227.7 450.7 223 451.7 223 450.6 223.2 449 222.1 449 218.7 451.7 216.8 461.2 212 459.4 212.9 456.2 216 455.3 215.7 450.9 209.8 451.2 213.5 461.2 207.5 461.3 205.3 451.2 213.2 451.5 212.9 443.4 213.6 443.8 214.4 444.2 215.1 444.3 215.9 444.5 216.7 444.5 217.5 444.3 217.3 433.9 230.2 424.4 223.9 417 224.6 412.6 232.7 416 231.2 409.4 231.5 406.5 228.6 411.8 228.6 408.5 229.3 405.1 232.3 402.3 227.7 400.9 229.4 396.4 233.8 394.8 235 389.6 230.4 388 231 396.7 227.7 393.4 227.5 389.1 231.8 389.4 233.2 386.8 233.9 381.9 231.1 380.8 230.5 377.4 221.8 376.3 214.3 381.3 219.6 392.5 218.5 412.7 209.5 424.8 204 440.5 203.5 439.2 202.7 438.2 202.2 436.8 204.5 431.3 208.4 427.5 207.7 418.9 216.7 412.1 221.4 384.8 210.3 376.4 203.4 380.8 190.6 376.9 186.6 380.2 183.5 392.7 180.9 405.7 176.6 417 186.1 446.2 210.8 462.6 217.7 489.6 209.6 482.6 206.6 470.2 198.5 463.2 197.4 467.8 201.6 475.1 204.9 478.3 220.5 506.2 237.5 533.2 256 559.1 256.5 546.1 242.4 539.9 241.4 525.2 239.3 525.4 238 525 237.7 523.3 233.9 513.5 227 506.7 223.1 496.9 228.1 500.5 239.9 500.9 244.2 499.6 243.8 501.4 240 499.6 241.5 503.4 246.7 502.5 251.9 501.8 257.1 501.5 256.7 516.9 259 535 251.6 543 260.1 555.9 266.6 570.9 277.2 581.6 270.6 588.8 265.2 609.8 271.7 621.2 273.4 606.9 273 586.7 285.4 580.7 286.7 583.4 292.3 577.9 291.8 583.4 290.3 585.1 288.8 582.6 285.4 583.4 270.8 598.3 275.5 628.7 285.4 642.8 291.7 642.8 293.7 643.6 301 643.8 303.3 641.1 305.2 638 309.2 637.2 308.9 622.7 317.1 603.7 308.3 589.1 305 599.9 310 643.8 291.8 637.2 290.4 636.5 289.3 635.4 288.5 634.1 287.6 632.8 287.2 631.2 287.3 629.6 290.8 630.9 293 629.9 298.2 630.6 297.6 627.7 300.9 628.8 300.1 625.9 288.6 626.1 284.3 616.6 284.5 602.3 284.5 603.6 282.2 603.3 282.7 601.4 291.1 601.4 285.3 586.9 291.8 585.3 293.7 586.8 291.3 592.8 295.5 591.9 296.3 586.5 300.8 584.7 300.1 577.8 293.8 575.8 286.9 574.9 280.9 578.7 281.4 540.3 293.7 485.2 293.7 436.3 287 433.4 283.8 435.9 277.2 434.5 277.6 448.4 268.4 459.5 269.9 474.1 268 475.3 267.3 473.6 264.4 475 265 480.9 260.1 481.3 258.9 485.4 260 488.6 261.1 496.9 257.1 497.6 254.2 491 245.2 496.1 242.5 493.8 242 491.7 247.1 490.6 244.3 489.1 239.4 492.8 237.3 488 233.3 489.1 235.2 487.6 240.4 484.3 238.7 481.8L238.8 481.8ZM233.2 378.1C232.8 384.1 240.1 380.6 236.8 377.2 236.6 379.1 234.3 375.8 233.2 378.1ZM287.1 403.5C287.9 403 288.4 402.3 288.7 401.5 289.1 400.6 289.1 399.7 288.9 398.8 287.2 397.8 283.5 393.9 285.3 392.3 289.7 393.7 289.3 400.1 294.4 400.7 292.9 392.6 287.3 388.6 283.5 382.8 281.9 383.4 283.5 387.3 281.7 387.5 279 385.4 279 380.9 276.2 379 276.2 388 282.5 398.6 287.1 403.5ZM339.3 382.8H341.9C342.7 379.8 340.5 379.9 339.3 379V382.8ZM335.6 389.4C338.2 387.8 340.3 389.7 342 388.5 341.5 384.1 338.7 387 334.7 385.8 334.5 387.1 334.9 388.3 335.6 389.4ZM301.8 401.7C301.3 396 296.9 396.3 299.9 391.3 297.6 390.3 295.1 389.7 292.6 389.4 293.4 395.8 297.3 399 301.8 401.7ZM309.1 406.4C309.8 401.6 316.3 409.3 318.2 406.4 316.9 399.9 311.5 403.4 307.2 399.8 307.2 399.2 307.2 398.7 306.3 398.9 306.1 402.6 306.7 405.4 309.1 406.4V406.4ZM323.7 408.3C323.4 403.8 321.1 407.4 319.1 404.5 318.5 407.9 321.2 408.2 323.8 408.3L323.7 408.3ZM336.5 405.6C335.9 408.7 329.5 405.9 329.2 409.4 330.8 410.2 333.8 409.7 334.7 411.2 338.2 421.1 341.3 431.2 343.8 441.4 346.5 441.7 346.6 439.3 349.3 439.5 348.6 427.1 344.1 415.2 336.5 405.4V405.6ZM326.4 414.9V412.1C322.7 411.1 321.2 412.8 317.3 411.2 318.9 415.6 324.5 414.6 326.4 414.9ZM239.6 422.4C242.7 419.8 245 416.1 246 412 241.6 412.6 237.7 418.6 239.6 422.4ZM145.4 435.6C153.9 432.7 168 430 168.2 443.1 178.8 432.1 163.8 425.6 156.3 422.4 156.1 423.5 153.5 426.9 152.7 424.3 158 417.3 166.8 419 173.7 423.4 169.2 402.9 146.4 421.8 145.4 435.6ZM316.5 419.6C319.1 420.3 323 417.6 320.2 415.8 319.9 418.2 318.6 414.5 316.5 415.8V419.6ZM171.1 428.1C171.8 424.5 170.1 423.5 167.5 423.4 167.4 426.1 169.4 426.9 171.1 428.1ZM226 432.8C226.3 430.6 230.4 427.3 227.8 425.2 226.7 427.3 221.6 431.1 225.9 432.8H226ZM231.5 433.7C231.7 433 232.2 432.6 233.3 432.8 232.8 431.4 234.4 427.9 232.4 428.1 232.1 429.5 228.7 432.5 231.3 433.7H231.5ZM262.6 442.2C264 441.7 265.3 440.7 266.1 439.3 267 437.9 267.3 436.3 267.1 434.7 263.8 435.4 262.4 438.1 262.4 442.2H262.6ZM140.9 450.7C149.4 454.3 152.4 463.4 161.1 466.7 160.8 460.2 165 458.2 163.7 450.7 159.2 450.7 161.2 446.7 156.4 448.8 155.4 447.1 155.1 445.1 155.5 443.1 149.6 444.3 151.2 439.2 145.4 438.4 143.7 442.4 142.1 446.5 140.8 450.7H140.9ZM350.1 455.4C351 451.9 355.9 452.7 356.5 448.8 354.1 446.3 354.4 441 350.1 440.3 346.4 442.8 343.5 446.4 341.9 450.7 343 450.7 344.1 451 343.7 452.6 348.8 453.6 351 446.9 353.8 448.8 352.8 450.6 347.3 452.6 350.1 455.4ZM373 599.7C369.9 606.3 362 607.8 359.3 614.8 347.4 618.3 335.3 629.7 323.6 636.5 324.1 651.6 331.8 666.8 340.1 677 339.6 683.9 344.8 688.5 349.2 687.4 358.5 701.9 378.2 695.5 391.3 692.1 406.6 678.3 426 668.7 429.7 643.1 447.1 613.7 450.6 564.2 447.1 521.4 441.4 493.2 431.5 474.7 418.8 454.5 408.7 447.6 388.1 434.9 374 445.1 371.1 444.5 369.8 445.7 367.6 446 362.8 461.1 378.2 473.2 377.7 486.5 380.6 485.7 380.6 488 381.3 489.4 379.5 498.5 386.2 511.1 390.5 513.8 392.4 527.7 398.4 534.9 401.5 550.6 423.7 557.7 403 589.1 385.9 590.2 385.9 594.5 382.4 595.4 380.5 597.7 377.6 598.2 378 594.5 375.9 596.8V601.5C374.5 601.3 374.3 600 373.1 599.7H373ZM293.4 575.2C296.5 575.6 299.6 575.2 302.6 574.3 305.9 534.1 314.3 499 328.2 469.6 321.4 459.5 313.5 450.3 304.5 442.3 307.1 488.6 295.8 526.9 293.5 575.2L293.4 575.2ZM258 456.4C257.7 452.8 264.5 447.9 259.8 446 259.9 449.7 254.5 452.5 258 456.4ZM418 450.7C418 448 415.9 447.2 414.4 446 414 449.1 415.3 450.6 417.9 450.7H418ZM25.8 555.3C27.4 546.7 29.5 538.2 32.2 529.9 38.3 511.8 45.4 491.3 58.7 479 75.3 463.6 95.6 453.6 121.9 455.4 130.2 458.8 135.7 462.1 142.9 464.8 145.6 468.1 149.2 475.3 153 474.3 151.5 474.7 149.9 470.7 152.1 470.5 154.7 471.2 153.9 475.6 157.6 475.2 148.4 445.4 104.9 444.6 78.9 455.4 77 459 72.1 459.6 69.8 463 44.4 473.8 28.9 509.8 21.3 543.1 18.7 555.2 13.3 568.4 11.3 579.9 8.4 598 7.1 616.3 7.3 634.6 7.3 663.5 18.8 687.2 26.5 710 37.4 723.1 47.8 749.4 65.8 747.7 55.3 744.1 48.8 736.4 42.1 728.9 42.1 727.1 45.1 728.2 44.8 726 41.7 725.1 42.8 719.9 39.3 719.4 38.1 721.8 41.9 723.3 39.3 724.1 36.4 721.4 37.4 717.7 36.6 714.7 36.6 715.9 36.4 716.9 34.8 716.6 29.3 708.8 25 700.2 22 691.1 25.9 680.6 19.4 665.9 16.5 656.3 14.4 630.4 15.6 604.4 20.1 578.9 22.5 578.6 19.2 584.2 22.7 582.7 18.4 574.2 23.3 566.8 25.6 555.3H25.8ZM26.7 555.3C29.9 555.9 30.6 549.1 27.6 548.8 27.1 551 26 552.3 26.5 555.3H26.7ZM34 532.7C28.5 537.8 33.4 542.9 34 532.7V532.7ZM239.6 463.9C240.7 461.6 246.1 454.8 242.2 453.5 242.6 457.6 236.7 460.3 239.6 463.9ZM362.1 477.1C366.4 469.4 358.5 460.8 356.6 453.5 346.1 459.8 352.2 474.2 362.1 477.1H362.1ZM127.1 615.7C126.8 617.9 129.7 616.7 129.7 618.4 123.7 634.7 115.4 622.1 108.7 619.4 104.5 617.6 97.7 619.9 94 617.5 93.6 616.8 93.3 616 93.1 615.2 93 614.4 93 613.6 93.1 612.8 89.5 613.1 89.8 617.6 85.8 617.5 80.5 616.1 77.2 612.5 77.6 605.2 80.9 603.9 81.7 596.1 85.8 598.6 86 595.9 85 592.2 87.6 592 89.1 592 88.3 594.4 90.3 593.9 91.3 589.7 94.2 587.2 94.8 582.6 93.8 582.2 92.9 581.6 92.2 580.7 93.5 577 95.7 573.8 98.6 571.3 97.7 567.5 97.6 563.9 101.2 562.8 109.6 530.6 120.5 501.8 129.6 468.5 129.2 467 126.7 467.7 127.8 464.7 115.9 462.3 102.7 461.5 93.9 464.7 89.6 466.4 85.8 473.9 81.1 471.3 77.2 476.8 70.3 479.1 66.5 484.5 59.1 485.8 57.3 497.6 51.9 497.7 42.9 520.8 31.3 539.8 29 567.5 28.3 569 26.1 568.9 26.4 571.3 22.1 596.2 20.3 621.5 21.1 646.8 25.2 649.4 23 656.2 23.7 663.8 32 684 35.3 705.1 47.4 721.3 57.1 733.2 70.2 741.5 84.9 744.9 101.4 748.1 110.3 739.2 117.8 732.6 120.4 730.3 125 728.8 127.9 726 130 724 130.5 720.4 132.4 718.5 133.7 717.3 136.2 717.5 137 716.6 142.7 709.7 149.4 696.9 153.5 690.2 162.5 675.4 162.7 657.1 168.1 640.2 166 637 167.9 628.6 170.7 625.1 170.4 609.1 169.5 590 173.4 575.2 168.8 558.5 171.6 534.3 163.3 521.4 153.4 552.3 141.7 577.5 130.4 608.3 132.3 611.4 133.8 604.6 135 607.3 132.1 609.8 129.4 612.6 127.1 615.7ZM228.6 475.2C229.1 471.3 235.1 465.2 231.2 463 230.6 466.7 225.7 470.9 228.6 475.2ZM230.4 480.9C231 478.6 235.3 475.3 232.3 472.4 232.3 475.3 227.3 477.9 230.4 480.9ZM439.8 473.3C444.7 488.8 449.4 504.3 454.5 519.5 452.3 507.3 458.2 492.3 448.1 482.7 446.5 488.4 453 490.9 449.9 495 447.7 487.2 444.3 479.9 439.8 473.3ZM150.9 508.2C151.8 508.2 152.7 507.9 153.5 507.3 157.7 491.3 151.9 478.3 139.8 476.1 134.4 486.4 131 497.6 129.7 509.2 129.4 509.3 127.9 508.2 127.9 508.2 118.3 539 107.1 569.3 94.2 598.7 95.6 597.9 97.5 602.4 94.2 603.4 93.2 602.6 93.9 600 91.5 600.7 90.3 603.7 86.7 606.4 91.5 608.3 91.4 605.9 92.9 605.3 94.2 604.5 95.5 607.5 98.9 604.1 98.7 607.2 97.4 609.3 96.1 606.2 95.1 609.1 97 615.1 105.1 613.9 109.7 614.8 109.5 610.2 113.7 609.3 117 611 131.2 579.7 143.8 546.9 150.9 508.2ZM329.2 476.1C316 499 310.2 529.5 307.2 563 313.4 560.9 311.3 550.2 318.2 548.9 319.7 550.2 321.8 550.8 322.8 552.6 329.3 550.1 336.9 553.6 342 550.8 341.7 552.6 343.2 552.6 343.8 553.5 338.8 562 319.4 550.1 321 565.7 325 566.3 327.4 565.7 329.2 566.7 328.1 572.5 322.5 573.6 316.4 574.2 315.6 580 312.7 583.6 310.9 588.4 312.3 590.4 315.5 590.6 315.5 594 334.6 591.4 352.8 583.9 368.5 572.3 363.1 559.3 356.9 547.2 352.1 533.6 344.9 536 346.2 547.1 336.5 546.9 332.1 537.9 345.7 541 343.8 531.8 336.9 528.5 337.6 539.3 333.8 542.1 332.6 536.7 338.3 533.6 335.6 529.9 334.2 531.2 334.9 534.8 331.9 534.6 331.8 533.2 332.3 531.1 331 530.8 328.1 530.6 328.1 534.1 323.7 534.6 330.5 523.2 335.1 505.1 336.5 491.2 324.7 500 324 520.4 318.1 535.5 316.9 530.9 318.4 525.7 319 520.4 317.4 520 316.7 521.8 316.4 520.4 321.4 511.2 327.5 503 329.2 490.2 332.7 493.4 329.4 483.5 334.6 485.5V478C332.9 477.1 331.1 476.5 329.2 476.1ZM334.7 509.2V520.5C337 519.6 339.5 519.3 342 519.5 343 514.8 345.9 515.2 347.5 512.9 348.9 512.9 348.2 515.3 350.1 514.8 350.1 514.1 350.2 513.3 350.5 512.7 350.9 512 351.4 511.5 352 511.1 352.8 512.4 353.3 514 355.6 513.8 357.7 502.9 365.6 498.3 366.6 486.4 364.8 486.4 365.4 483.9 362.9 484.5 356.8 496.1 346.7 504.9 334.7 509.2ZM458.1 515.7C458.1 511 458.4 505.9 455.4 504.4 455.4 509.2 455 514.3 458.1 515.7ZM37.4 524.2C38.4 517.6 43.6 510.6 42.9 505.2 41 510.9 35.6 517.9 37.5 524.2L37.4 524.2ZM391.3 552.5C391.5 551.7 391.3 550.6 392.2 550.6 384.3 536.4 384.3 517.2 375.8 505.3 374.4 507.1 372.9 508.6 371.2 510 362.2 507.3 360.7 519.7 357.5 526.1 361.3 536.9 366.7 546.1 367.5 560 375.3 557.3 384.3 555.8 391.4 552.5L391.3 552.5ZM180.1 624.3C180.6 619.2 182.5 615.4 182 609.2 183.6 607.4 184.6 610.3 186.5 608.2 186.2 592.2 187.1 576.8 186.5 563 186.5 561.3 181.9 564.8 182 561.1 183 552.2 179.3 543 181 536.7 183.1 540.2 180.8 548.2 184.7 549.9 185.4 540.2 183.8 530.5 180.1 521.6 177.2 524.8 183.4 530.4 180.1 533.8 178 526 177.9 516.1 172.8 511.2 182.4 542.4 180.6 586.7 180.1 624.3ZM455.4 533.7C456.9 531.7 457.2 524.9 453.6 525.2 454 528.2 452.4 533.3 455.4 533.7ZM456.3 552.5C456.8 550.5 458.6 546.4 455.4 545.9 454.9 547 454.7 548.2 454.9 549.4 455 550.6 455.5 551.7 456.3 552.5H456.3ZM294.5 601.6C292.7 601.6 293.3 599 290.8 599.7 286.4 603.8 289.6 609 290.8 614.8 294.8 615.2 297.5 618.3 300.9 616.7V610C299.9 607.8 296.7 612.1 295.4 609.1 303.9 590.8 313.5 573.7 321 554.4 319.2 554.4 319.8 551.7 317.3 552.5 308.4 567.5 303.7 586.9 294.4 601.6H294.5ZM460 560.1C460.6 558 462.3 553 459.1 552.5 457.3 554.5 458.5 558.7 460 560.1H460ZM394.2 566.7C396 565.7 396.3 563.2 397.9 562 400.2 563.5 402.2 561.7 406.1 562.9 406.9 547.1 386.3 556.2 394.1 566.7H394.2ZM448.2 617.6C454.2 601.6 459.9 572.4 455.5 557.2 455.8 577.7 449.2 599.3 448.1 617.6H448.2ZM378.7 562.9C379.1 564.4 381.5 563.7 380.5 566.7 383.8 566.9 384.9 564.9 387.8 564.8 387.1 562.3 390.6 559.6 387.8 558.2 385.1 560.2 378.9 558.5 378.6 562.9H378.7ZM370.4 562.9C370.8 565.8 371.4 568.6 372.3 571.4 372.4 570 374.5 570.5 375.9 570.4 375.6 569 375.7 567.5 376 566 376.3 564.6 376.9 563.2 377.7 562 374.3 563 372.4 562.1 370.3 562.9H370.4ZM383.2 570.4C383.8 571.2 388.7 572.9 387.8 569.5 387.3 567.4 382.7 568.6 383.2 570.4H383.2ZM458.2 589.4C459.1 581.7 462 575.2 459.1 569.7 459.1 577 456 581.9 458.1 589.3L458.2 589.4ZM394.2 574.3C382 577.1 373.4 583.7 364 589.4H359.5C359.3 590.6 359.5 592.2 358.5 592.2 343.3 595 330.3 605.9 318.3 612 319.3 620.9 315.8 625.1 315.7 632.7 341.6 615.1 361.9 602.8 387.9 586.6 388.7 583.8 388.2 579.9 389.7 578.1 392.8 576.2 392.6 581.5 397.1 579 397.9 575.4 394.9 575.9 394.1 574.2L394.2 574.3ZM455.4 607.2C456.4 606.2 457.3 600.5 455.4 599.7 455.2 601.4 453.1 605.9 455.4 607.2ZM119.8 611C123.2 610.3 120.4 616 124.3 614.8 123.6 611.5 125.2 609.9 127.1 612 126.9 609.3 127.9 605.6 125.3 605.5 123.8 606.1 125.5 610.1 122.6 609.2 122.1 607.8 123.7 604.3 121.7 604.5 120.9 605.3 120.3 606.4 119.9 607.5 119.6 608.6 119.5 609.8 119.8 611ZM84.1 613.7C89.4 614.9 90 606.9 85.9 606.2 84.6 608 81.6 610.9 84.2 613.8L84.1 613.7ZM118.9 621.2C121.9 622.7 126.8 622.3 126.2 617.5 122.6 617.6 119.9 618.8 118.9 621.4V621.2ZM445.3 627.8C446.2 626.6 449.4 619.7 445.3 619.4 445.7 622.1 442.7 626.1 445.3 628L445.3 627.8ZM177.4 641.2C178 638 182.6 629.9 178.3 628 180.1 633.9 174.9 637.6 177.4 641.2ZM212.2 638.5C211.6 640.4 213.3 644.6 211.2 645.1 209.7 644.5 211.2 640.6 209.4 640.3 207.7 644.2 207 648.4 207.6 652.6 212 653.2 211 648.3 214.9 650.7 216.3 646.1 219.2 642.1 223.1 639.4 222.6 637.7 224.2 634 222.2 633.7 218.5 634.4 215.1 635.9 212.2 638.3V638.5ZM176.5 660.2C180.5 655.8 182.1 643.9 181 637.6 178.4 643.8 178.5 653 176.4 660L176.5 660.2ZM312.7 647.9C314.2 646.5 314.1 642.5 310.9 643.2 310.8 645.4 310.6 647.6 312.7 647.8V647.9ZM222.2 652.5C226.1 654.5 227.7 646.6 224 646.8 223.2 648.6 222.5 650.5 222.2 652.5ZM167.3 680.8C169.3 672 177 659.5 173.7 651.5 171.1 660.1 166.7 672 167.3 680.8ZM189.3 670.4C190.9 671.5 194.5 670.4 197.5 672.3 200.2 670.9 195.9 668.4 198.4 667.6 203 669 207.6 664.4 207.6 658.1 199.2 656.5 190.8 658.5 189.3 670.4ZM425.2 669.5C427.9 668.7 431.6 664 428.9 661 428.2 664.3 425.2 665.3 425.2 669.5ZM171.9 676C175.2 675.3 175.6 666.7 174.5 664.7 174 668.5 170.1 672.8 171.9 676ZM422.5 677C423.3 676.2 426.5 671.2 422.5 671.3 422.7 673.1 419.9 676 422.5 677ZM412.4 685.5C414.8 685.9 417.7 682.2 415.2 680.8 415.2 683.3 412.3 682.8 412.4 685.5ZM414.3 689.2C417 689.9 416.9 687.6 419.7 688.3 420 684.6 422.4 686 422.4 680.8H419.7C419.8 685.6 414.7 685 414.3 689.2ZM159.1 701.5C159.9 698.2 160.8 695.1 163.7 698.8 164.8 695.2 169.8 690.6 167.3 686.5 165.7 688.6 166.5 693.2 163.7 694.1 162 689.5 167.8 687.7 164.6 684.7 162.2 689 157.5 696 159.1 701.5ZM344.9 692.1V688.3C341.2 689.5 343 685.2 339.4 686.4 340.5 688.9 342.4 691 344.9 692.1ZM401.5 701.5C404.4 702 404 698.3 406.1 700.6V695.9C403.4 696.6 400.8 697.4 401.4 701.5L401.5 701.5ZM154.5 707.2C157.4 707.2 157.7 704.7 158.2 702.5 154.8 701.8 155.9 705.7 154.5 707.2ZM142.6 725.1C145.3 725.7 146.5 720.4 144.5 719.4 143.9 721.4 142.2 722.1 142.6 725.1ZM140 727C137.1 729 133.4 730.2 132.7 734.5 135.7 732.8 140.8 732.8 139.9 727H140ZM129.9 743C137.6 736.8 146.9 732.1 150.1 721.3 144.6 729.3 132.6 735.5 129.8 743H129.9ZM104.3 748.7C102.9 752.4 108.3 749 108 751.4 100.8 756.1 93.4 751.5 86.9 755.1 96.5 759.2 120.1 754 128.1 742.9 121.6 743.5 117.1 751 111.6 749.5 115.7 744.2 123.3 744.6 125.3 739.1 118 742.1 112.8 747.1 104.2 748.7H104.3ZM164.7 750.6C176.2 749.9 185.3 752.5 190.3 747.8 179.2 748.2 171.4 746.5 164.6 750.6H164.7ZM67.8 751.5C73.7 751.8 81.9 760.1 86 753.4 79.7 753.7 71.9 747.1 67.7 751.5H67.8Z" class="a"/><path d="M267 140.5C267 139.6 268.1 139.8 268.8 139.6 264.8 151.3 260.5 163 259.7 178.2 257 167.8 261.4 148.5 267 140.5Z" class="a"/><path d="M102.4 451.6C103.8 455.6 97.7 451.8 97.8 454.4 95.9 453.6 99.5 450.7 102.4 451.6Z" class="a"/><path d="M399.6 494C401.5 495.4 397.3 498.5 397 500.6 395.9 499.8 394.6 499.5 393.3 499.7 393.3 495.8 398.6 497.2 399.6 494Z" class="a"/><path d="M416.1 501.6C418.1 503.4 413.1 506 412.4 508.2 409.9 505.9 415.1 503.5 416.1 501.6Z" class="a"/><path d="M150.1 571.4C151.5 572.9 147 576.4 146.4 578.9 143.3 575.8 149.4 574 150.1 571.4Z" class="a"/><path d="M73.1 582.7C75.6 584.8 77.3 587.9 77.7 591.2 74.8 589.7 74.4 585.8 73.1 582.7Z" class="a"/><path d="M68.4 595.9C67.2 596.2 67.7 598.3 67.6 599.7 64.6 598.3 59 599.7 60.2 594 63 595.6 66.2 596.2 69.4 595.9 69.3 597.1 68.4 596.4 68.4 595.9Z" class="a"/><path d="M387.7 613.8C381.9 617.7 377 598.5 385.9 596.8 388.2 597.9 388.5 601 388.5 604.4 387.7 603.7 387.1 602.7 386.7 601.7 383.8 610 391.3 615.7 392.2 623.4 390.5 620.4 387 619.3 387.7 613.8Z" class="a"/><path d="M75.9 622.3C73.8 621.9 75.5 617.7 75 615.7 68.3 618.6 64 623.9 56.7 626.1 60 620.5 80.8 608.6 75.9 622.3Z" class="a"/><path d="M64.9 624.3C67.1 626.6 60.8 628.1 58.5 629 54.3 633.8 46.8 640.2 42 641.3 49.5 635.3 55.9 628.5 64.9 624.3Z" class="a"/><path d="M104.2 660C104.9 651.4 105.1 640 101.6 631.7 103.4 630.1 103 626.3 104.2 624.2 108.4 626.5 107.4 634.1 111.5 636.4 100 640.5 113.7 652.3 113.4 661.9 110 660 111.5 653.2 107.9 651.5 107 655.6 111.2 662.6 112.5 667.6 114.4 667.6 112.9 664.2 113.4 662.9 119.4 665.8 114.9 669.5 114.3 671.3 114.3 671.3 116.2 673 116.1 670.4 116.1 672.4 117 674.4 115.2 676 111.3 670.9 110.9 662.3 104.2 660Z" class="a"/><path d="M74.1 627C71.5 631.3 67.7 634.6 63.2 636.4 65.3 631.8 70.3 630.1 74.1 627Z" class="a"/><path d="M80.4 634.6C75.5 638.8 70.9 643.6 66.7 648.7 65 645.2 66 644.9 62.2 646.8 66.1 640.5 72.9 637.2 76.8 630.8 78.2 631.9 80.9 631.6 80.4 634.6Z" class="a"/><path d="M138 643C141.9 644.7 144.2 648 147.2 650.6 144.6 651.4 138.9 647.2 138 643Z" class="a"/><path d="M75 644C71.2 653.5 66.6 662.6 61.3 671.3 58.9 669.7 63 667 62.2 663.8 57.2 663.1 57.9 676.3 52.1 677.9 56.5 673.7 56.1 659.4 63.1 661 67.9 656.2 70 648.7 75 644Z" class="a"/><path d="M60.3 647.8C55.1 656.5 46.9 662.2 41.1 670.4 42.8 661.7 53.6 654.4 60.3 647.8Z" class="a"/><path d="M122.5 667.7C122 667.9 121.5 668.2 121.2 668.7 120.8 669.2 120.7 669.8 120.7 670.4 116.2 665 115.4 655.6 111.5 649.6 114.4 647.1 113.8 656 118.9 654.4 121 663.8 127.4 668.8 128.9 678.8 126.7 679 124.6 670.8 122.5 667.7Z" class="a"/><path d="M587.1 710C586.7 709.3 586.6 708.5 586.6 707.6 586.6 706.8 586.7 706 587.1 705.3 593.5 711 611 702.6 616.3 709.1 606.5 708.2 596.7 708.5 587.1 710Z" class="a"/><path d="M90.5 655.3C96.5 662.9 94.8 681.5 94.2 694.9 93.3 692.5 91.7 690.5 89.5 689.2 91.1 683.3 90.2 674.9 90.4 667.5 92 664.5 90.7 672.1 92.3 672.2 93.3 671 95.1 661.2 90.4 662.8L90.5 655.3Z" class="a"/></g><defs><clipPath><rect width="666" height="761" fill="white"/></clipPath></defs></svg>