<svg xmlns="http://www.w3.org/2000/svg" width="134" height="52" viewBox="0 0 134 52" fill="none"><style>.a{stroke:#331414;}</style><path d="M91.3 16.7C87.9 16.7 84.7 17.7 81.9 19.6 79.1 21.5 76.9 24.2 75.6 27.3 74.3 30.4 74 33.9 74.7 37.2 75.3 40.5 76.9 43.6 79.3 46 81.7 48.4 84.7 50 88 50.7 91.3 51.3 94.7 51 97.8 49.7 100.9 48.4 103.5 46.2 105.4 43.4 107.2 40.6 108.2 37.2 108.2 33.9 108.2 29.3 106.4 25 103.3 21.8 100.1 18.5 95.8 16.7 91.3 16.7V16.7ZM91.3 48.1C88.5 48.1 85.8 47.3 83.5 45.7 81.2 44.2 79.4 41.9 78.3 39.3 77.3 36.8 77 33.9 77.5 31.1 78.1 28.4 79.4 25.9 81.4 23.9 83.3 21.9 85.8 20.5 88.5 20 91.3 19.5 94.1 19.7 96.7 20.8 99.2 21.9 101.4 23.7 103 26 104.5 28.4 105.3 31.1 105.3 33.9 105.3 37.7 103.8 41.3 101.2 43.9 98.6 46.6 95 48.1 91.3 48.1V48.1Z" class="a"/><path d="M93 33.9C93 34.2 92.9 34.5 92.7 34.8 92.5 35.1 92.2 35.3 91.9 35.4 91.6 35.6 91.3 35.6 91 35.5 90.6 35.5 90.3 35.3 90.1 35.1 89.8 34.8 89.7 34.5 89.6 34.2 89.5 33.9 89.6 33.5 89.7 33.2 89.8 32.9 90.1 32.6 90.3 32.4 90.6 32.2 90.9 32.1 91.3 32.1 91.7 32.1 92.2 32.3 92.5 32.6 92.8 33 93 33.4 93 33.9V33.9Z" class="a"/><path d="M41.9 16.7C38.5 16.7 35.3 17.7 32.5 19.6 29.7 21.5 27.5 24.2 26.2 27.3 24.9 30.4 24.6 33.9 25.3 37.2 25.9 40.5 27.5 43.6 29.9 46 32.3 48.4 35.3 50 38.6 50.7 41.9 51.3 45.3 51 48.4 49.7 51.5 48.4 54.1 46.2 56 43.4 57.8 40.6 58.8 37.2 58.8 33.9 58.8 29.3 57 25 53.9 21.8 50.7 18.5 46.4 16.7 41.9 16.7V16.7ZM41.9 48.1C39.1 48.1 36.4 47.3 34.1 45.7 31.8 44.2 30 41.9 28.9 39.3 27.9 36.8 27.6 33.9 28.1 31.1 28.7 28.4 30 25.9 32 23.9 33.9 21.9 36.4 20.5 39.1 20 41.9 19.5 44.7 19.7 47.3 20.8 49.8 21.9 52 23.7 53.6 26 55.1 28.4 55.9 31.1 55.9 33.9 55.9 37.7 54.4 41.3 51.8 43.9 49.2 46.6 45.6 48.1 41.9 48.1V48.1Z" class="a"/><path d="M43.6 33.9C43.6 34.2 43.5 34.5 43.3 34.8 43.1 35.1 42.9 35.3 42.5 35.4 42.2 35.6 41.9 35.6 41.6 35.5 41.2 35.5 40.9 35.3 40.7 35.1 40.4 34.8 40.3 34.5 40.2 34.2 40.1 33.9 40.2 33.5 40.3 33.2 40.4 32.9 40.7 32.6 40.9 32.4 41.2 32.2 41.5 32.1 41.9 32.1 42.3 32.1 42.8 32.3 43.1 32.6 43.4 33 43.6 33.4 43.6 33.9Z" class="a"/><path d="M63.2 37.6L52.2 11.3 83.9 11.5 83.9 12.8 54.1 12.6 63.6 35.2 83.9 12.9 84.9 13.8 63.2 37.6Z" class="a"/><path d="M50.9 5.1L49.7 5.6 53 13.6 54.2 13.1 50.9 5.1Z" class="a"/><path d="M64.1 36.9L40.8 34.3 53.6 11.8 64.1 36.9ZM42.9 33.2L62.1 35.3 53.5 14.7 42.9 33.2Z" class="a"/><path d="M43.6 2.7C43.6 2.7 57.2 3.3 57.4 4.6 57.5 5.2 52.1 4.8 49.8 5.7 46.9 7.1 44.2 6.5 43.6 2.7Z" class="a"/><path d="M91.2 34.7C91 34.7 90.9 34.6 90.8 34.6 90.7 34.5 90.6 34.4 90.6 34.2L82.2 8.4C82 7.9 80.6 4.8 81.5 2.7 81.7 2.3 82 1.9 82.3 1.6 82.7 1.3 83.1 1.1 83.5 1L83.7 1H83.8C84.2 1.1 92.9 2.4 94.4 2.7 96.1 3 96.9 5.3 96.6 7.2 96.1 10.3 93.4 11 91.3 10.7 91.2 10.6 91.1 10.6 91 10.6 91 10.5 90.9 10.5 90.8 10.4 90.8 10.3 90.8 10.3 90.7 10.2 90.7 10.1 90.7 10 90.7 9.9 90.7 9.8 90.8 9.8 90.8 9.7 90.9 9.6 90.9 9.5 91 9.5 91 9.4 91.1 9.4 91.2 9.4 91.3 9.4 91.4 9.4 91.5 9.4 94.5 9.8 95.1 7.9 95.3 7 95.6 5.5 95 4.1 94.1 4 92.8 3.7 84.9 2.5 83.7 2.3 83.5 2.4 83.3 2.5 83.1 2.7 82.9 2.8 82.8 3 82.7 3.2 82.1 4.6 82.9 7 83.3 7.9V8L91.8 33.9C91.9 34 91.9 34.2 91.8 34.4 91.7 34.5 91.6 34.6 91.4 34.7 91.3 34.7 91.2 34.7 91.2 34.7V34.7Z" class="a"/><path d="M67.8 35.7C67.8 36.5 67.5 37.3 67.1 38 66.6 38.7 66 39.3 65.2 39.6 64.5 39.9 63.6 40 62.8 39.8 62 39.7 61.3 39.3 60.7 38.7 60.1 38.1 59.7 37.3 59.5 36.5 59.4 35.7 59.5 34.9 59.8 34.1 60.1 33.3 60.6 32.7 61.3 32.2 62 31.7 62.8 31.5 63.6 31.5 64.7 31.5 65.8 31.9 66.6 32.7 67.3 33.5 67.8 34.6 67.8 35.7V35.7Z" class="a"/><path d="M1.5 21.5H23.7C24.5 21.5 26 20.4 24.6 20.4H2.4C1.7 20.4 0.2 21.5 1.6 21.5H1.5Z" class="a"/><path d="M2.5 31.3H18.9C19.7 31.3 21.1 30.1 19.7 30.1H3.3C2.5 30.1 1.1 31.3 2.5 31.3Z" class="a"/><path d="M14.1 41.1H19.9C20.1 41.1 20.4 41.1 20.6 41 20.9 40.9 21.1 40.7 21.3 40.5 21.5 40.1 21 39.9 20.7 39.9H14.9C14.6 39.8 14.4 39.9 14.1 40 13.9 40.1 13.7 40.2 13.5 40.4 13.2 40.9 13.7 41.1 14.1 41.1V41.1Z" class="a"/><path d="M132 20.6H109.8C109.1 20.6 107.5 21.6 108.9 21.6H131.1C131.8 21.6 133.4 20.6 132 20.6H132Z" class="a"/><path d="M131 30.3H114.6C113.8 30.3 112.3 31.4 113.7 31.4H130.1C130.9 31.4 132.4 30.3 131 30.3H131Z" class="a"/><path d="M119.7 40.2H113.9C113.4 40.2 112.8 40.4 112.4 40.6 112.1 40.8 112.1 41 112.5 41H118.3C118.8 41 119.3 40.9 119.8 40.6 120.1 40.4 120.1 40.2 119.7 40.2Z" class="a"/></svg>