<svg xmlns="http://www.w3.org/2000/svg" width="684" height="621" viewBox="0 0 684 621" fill="none"><style>.a{fill:black;}</style><g clip-path="url(#clip0)"><path d="M503.9 40.1C504.3 42.6 502.8 43.1 502.4 44.8 499.5 44.2 500.8 39.3 503.9 40.1Z" class="a"/><path d="M303.4 85.7C302.8 87.9 301 88.9 298 88.8 296.5 83.6 302.2 81.8 303.4 85.7Z" class="a"/><path d="M512.4 331.1C514 332.2 515.3 333.7 516 335.5 516.7 337.3 516.8 339.3 516.3 341.1 513.3 343.8 511.4 342.8 507 341.9V334.2C507.9 332.3 511.8 333.4 512.4 331.1ZM512.4 340.4C514.1 340.4 512.7 337.1 513.2 335.8H510.8C509.6 337 509.9 340.6 512.4 340.4Z" class="a"/><path d="M361.3 400.6C360.4 398.4 364 394.8 366.7 393.7 366.5 395.2 365.9 396.7 364.9 397.9 364 399.1 362.7 400 361.3 400.6Z" class="a"/><path d="M449.9 0C453.2 3.6 451.7 8.6 453 13.1 468.7 15.4 491.7 12.6 501.6 23.9 505.9 28.9 504.6 35.5 510.8 39.3 515.1 36.4 519.4 32.5 524.7 34 528.2 34 523.1 36.2 524.7 39.3 509.3 38.8 508.5 60.9 493.1 53.2 488.8 43.8 477.5 38.7 478.5 26.3 472.8 24.4 464 26.3 459.2 25.5 450.2 32.9 453.9 50.6 453.8 63.3 457.6 63.3 457.2 58.5 461.5 58.7 457.9 52 454 32.6 462.3 27.8 455.9 43 467.1 77.2 488.5 71 491.2 71 489.8 75.3 491.6 76.4 517.4 84.6 548.2 92 568.7 109.6 569.5 109.1 569.5 107.8 571 108 573.9 112.5 578.3 115.8 583.4 117.3 618.6 144 644.7 179.9 665.1 221.5 669.4 237.4 675.8 251 677.4 269.4 677 271.1 678.9 270.5 679 271.7 687 316.2 685.5 361.8 674.4 405.6 663.4 449.4 643.1 490.4 615 525.7 601.3 534.3 591 546.4 580.3 558.1 551.3 578.8 518 600.4 477.7 612.1 479.6 617.2 484.1 612.1 486.9 612.1 490.6 612.1 494.3 613.1 498.5 612.9 506.7 612.5 515.7 612.3 524 612.1 533.7 612.1 544 609.5 551.7 613.7 464 623.8 370.6 621.8 274.1 617.5 272.3 619.1 263.8 620.1 264 615.2 281.2 611.5 306.3 614.1 322.7 616 331.3 612.9 339.1 617.3 345.8 614.5 329.8 605.8 309.1 602.3 295.7 591.3 293.2 591.7 292.9 589.9 290.3 590.5 256.4 567.4 223.7 538.4 203.1 499.3 202.7 497.6 201.9 500.3 200.8 498.6 192.5 479.7 183.6 461.1 176.9 440.7 171.7 420.9 168.1 400.8 166.1 380.4 166.5 351.7 167.4 321.9 173.9 294 176.3 284.1 180.6 273.7 183.9 262.6 184.7 259.4 185.7 256.4 186.9 253.3 188 251 190.9 249 191.6 247.2 192.7 243.6 191.6 241 195.4 239.4 201.3 217.9 214.8 204.3 224 186.2 225.5 184.2 229.1 184.1 228.6 180 230.9 179.1 232.8 177.7 234.4 175.8 235.9 173.9 236.9 171.6 237.2 169.2 230 170.7 226.5 179.2 221.8 185.4 217 191.6 212.6 199.1 207.9 204.7 200.2 221.5 191.1 236.8 183.2 253.3 183.5 255.1 183.3 256.9 182.6 258.5 182 260.2 180.8 261.6 179.4 262.6 165.2 304 153.6 346.2 144.5 389 143.5 393.3 147.8 392.4 146.8 396.7 145 397.8 145.4 396.7 143 397.5 141.2 406.5 137.2 420.1 141.4 429.2 154 434.1 165.1 442 173.8 452.2 182.6 462.4 188.7 474.7 191.6 487.8 194.7 500.1 197.5 508.9 196.2 522.6 191.9 566.9 161.3 597.9 126.8 613.6 141 615.3 159 613 176.1 614.4 169.4 620.4 158 618.7 148.4 619 122.2 620.1 100.3 619.5 69.7 618.3 59.2 617.9 46.8 619 37.3 618.3 33.2 618.1 29.2 616.7 25.8 614.4 31.7 608.8 46.2 615.2 58.9 613.6 56 607.5 48.6 607.1 43.5 603.6 36.9 599 32 592.1 25 588.2 25.4 585.2 23 585 22.7 582.8 14.7 574.2 8.6 564.1 4.8 553.1 0.9 542-0.6 530.3 0.3 518.7 1 511.2 5.2 505.1 4.2 497.8 22.8 452.5 65.9 415.8 119.8 423.8 123.7 422.2 122.7 415.8 128.4 416.1 130.3 406.8 133.1 397.1 131.5 388.2 130.5 384.9 124.6 386.3 126.1 380.5 130.4 379.5 129.7 383.6 133.8 382.9 139.4 377.1 137.7 369 139.2 362 143.5 341.4 150.2 319 153.9 295.6 159.6 280.8 164.3 265.6 167.7 250.1 175 240.6 175.4 224.3 184 216.1 183.5 212.9 185.3 211.8 185.5 209.2 187.6 206.7 190.5 204.9 190.1 199.9 195.3 195 199.3 188.9 201.7 182.2 214.3 170.6 220 152 235.6 143.4 249.1 126.3 265.8 112.1 284.9 101.8 284.2 100.7 283.1 99.8 281.9 99.4 280.6 99 279.3 99 278 99.4 278.4 97 276.9 96.4 276.5 94.8 276.6 93.7 277.1 92.8 277.8 91.9 278.4 91.1 279.3 90.5 280.3 90.2 284.3 61.8 314.8 55.1 335.9 48.5 324.6 43 313 38 304.2 30.1 302.7 12.3 320.8 21.5 330.4 20.8 350.2 29.9 377.7 30.9 402.9 27.8 407.2 24.6 408.3 18.3 415.8 18.5 418.8 18.5 418.2 22.3 420.4 23.2 425.4 23.2 426.4 19.4 428.1 16.2 433.1 15.7 437 16.2 440.5 13.1 440.5 7.9 439.1 0.9 444.3 0.8 444.8 2.4 443.4 5.9 445.1 6.2 449.4 6.8 445.6 1.3 447.4 0.8 447.7 0.5 448.2 0.3 448.6 0.1 449 0 449.5 0 449.9 0ZM443 10.8C445.3 11.4 445.4 14.1 449.2 13.1V9.3C446.3 8.6 444.2 8.2 443 10.8ZM441.5 17C440.9 19.8 443.2 20.7 441.5 22.4 444.3 23.1 447.2 23.3 450.1 23.2V16.2C446.4 15.9 443.8 14.8 441.4 17H441.5ZM456.9 16.2V18.5H460.8C460.7 17.7 461 16.9 461.5 16.2 460.9 15.7 460.1 15.4 459.2 15.4 458.4 15.4 457.5 15.7 456.9 16.2H456.9ZM491.6 35.5C490.8 32.2 494.5 33.3 494.7 30.9 492.1 25.8 490.4 19.9 482.4 20.1 486.6 24.1 486 32.9 491.6 35.5H491.6ZM428.4 35.5C435.9 35.3 437.5 41 438.4 47.9 440.3 44.4 440.9 37.1 437.6 35 440.6 31.7 439.3 26.3 439.2 22.6 430.8 22.1 428.7 27.9 428.3 35.5H428.4ZM335.1 27.8C326.5 26 313.5 19.2 310.4 27.8 323.3 30.6 344.8 35.4 352.8 47.9 365.7 53.5 372.8 44.6 383.7 44 387.9 43.6 392 42.5 396 40.9 402.2 39 411.2 39.2 413.7 32.3 409.4 28 404.2 31.7 399.8 32.3 381.2 34.7 365.4 29.9 349.7 32.3 354.3 36.2 362.3 34.1 363.6 40 353.6 37.1 344 33 335 27.8H335.1ZM442.2 30.9C443.5 32.7 446.5 32.5 450 32.4 450 29.2 451 29.4 450 27 447.9 27.1 445.8 26.9 443.8 26.3 443 27.7 442.5 29.3 442.2 30.9H442.2ZM500.1 30.9V27.8H497.8C497.5 29.8 498 31.1 500 30.9H500.1ZM443 36.3C439.8 42.3 442.6 54.4 440.7 61.7 438.1 64.2 434.9 65 434.5 67.9 440.7 68.3 446.9 68.3 453 67.9 449.2 60.4 450.1 49 450 37.1 447.9 36.5 444.8 34.7 443 36.3ZM494.6 40.1C492.5 53 515.6 47.5 503.2 36.3 498.2 35.4 495.2 36.5 494.6 40.1ZM396.7 46.3C403.5 46.9 420.5 47.2 422.2 37.7 413.1 38.3 404.3 41.2 396.7 46.3ZM372 50.9C370.8 55.3 368.4 59.3 365.1 62.5 362.8 61.5 362 59 359.7 57.9 357.4 59 355.3 60.6 353.5 62.5 351.6 61.2 350.1 59.5 349 57.5 347.9 55.5 347.4 53.2 347.4 50.9 321.5 57.8 290.8 62.2 288 87.2 293.6 84.1 294.8 76.5 303.4 76.4 307.1 66.9 321.5 72.1 321.1 81.8 347.7 68.9 376 60 405.2 55.6 416 54.1 428.6 55.9 429.1 43.2 428.1 43.2 428 42.2 426.8 42.4 414.1 53.6 392 47.4 372 50.9ZM433.7 51.7C433.7 53.6 433.7 55.4 435.3 55.6 435.9 55.1 437 51.3 435.3 50.9 435.1 51.7 434.6 51.7 433.7 51.7V51.7ZM429.1 65.6C432.5 62.5 431 57 430.6 51.7 424.3 50.4 424.2 65.1 429.1 65.6ZM352 54C352.9 54 352.8 55.2 352.7 56.3 355.1 55.3 355.5 56.7 358.9 56.3 359.5 51.7 354.5 52.5 352 54ZM365.9 56.3C365.5 54.9 366.9 51.7 364.3 52.5 363.1 53.6 363.2 56.9 365.9 56.3ZM420.6 61.7C364.7 66.5 319.6 91.4 276.4 117.3 276.4 119.1 276.4 120.2 274.8 120.4 270 122.8 265.1 125 263.3 130.4 262.2 130.2 261.8 129.4 260.2 129.7 258.9 135 251.6 134.3 251.6 141.2 257.9 138.8 262.1 132.9 267 128.9 280.2 118.4 294.7 109.6 310 102.7 317 95.5 322.5 94.1 333.9 91.1 348.5 82.1 364.4 75.6 381 71.8 394.2 68.6 409.5 68.4 422.6 63.2 422.7 62.2 421.2 62.4 420.6 61.7ZM458.4 63.3V65.6C460.6 65.6 462.7 65.3 462.3 62.5 460.9 62.2 459.5 62.5 458.4 63.3ZM471.3 71C470.1 68.2 467.4 68.1 463.6 66.4 463.9 70.2 469.4 71.7 471.5 71H471.3ZM402.5 73.3C392.6 74.3 376.7 77 370.1 81.9 391.9 78.1 409.9 73 431.8 71.9 431.4 70.8 432.7 67.9 431 68 423.9 71.3 412 68.9 402.9 73.2L402.5 73.3ZM444.9 71.8C444.9 72.6 444.7 73.4 444.1 74.1 445.9 122 445.8 169.6 443.4 216.1 442 243.3 444.9 270.7 444.1 297.2 443.8 308.6 441.9 320.9 444.9 332.7 449.5 308.3 442.2 281.3 444.9 257.8 445.2 255.4 447.1 253.2 447.2 250.8 447.7 241.3 445.5 230.8 445.7 220.7 445.7 217.1 447.2 214.1 447.2 210.7 447.2 171.9 448.3 135.4 448 94.9 448 87.3 445.6 78.1 451.1 73.4 453.5 78.4 451.5 87.1 451.8 94.9 452.6 112.4 452.3 130.4 452.6 148.2 452.9 160.8 446.9 174 452.6 186 453 150.6 456.3 114.7 454.9 72.5 451.8 71.9 448.5 71.7 445.3 71.8H444.9ZM485.8 74.9C481.5 76.2 476.6 73.4 471.1 71.8 470.6 79.2 484.8 80.8 486 74.9H485.8ZM460.3 78.7C464.6 80.7 464.6 79.5 469.6 80.3 468.1 76.4 466.3 72.7 461 72.6 460.2 73.7 460.8 76.5 460.7 78.7H460.3ZM303 81.1C296.8 80.7 293.9 83.8 294.4 90.3 297.3 89.5 296.6 92.2 299 91.9 302.3 89.7 305.2 87.1 307.6 84.1 308.9 84.8 310.3 85.1 311.8 84.8 313.2 84.5 314.5 83.7 315.4 82.6 313.8 81.1 311.1 82.1 309.2 82.6 307.6 77.4 312.3 78.6 312.3 74.9 306.1 73.4 306.2 78.7 303.4 81.1H303ZM435.7 75.6C409.3 76.2 396.9 81.2 373.9 84.2 353.7 90.5 332.4 101.2 310.7 111.3 303 119.9 291.9 123.8 283 130.6 262.5 146.2 246.5 166.2 228.2 183.9 227.1 191 220.3 192.5 219.6 200 208.7 212.7 201.9 227.6 195 245.6 192 245 193.2 248.5 191.1 248.7 183 275 173.9 303.3 170.3 334.3 165.6 378.5 172.2 423.1 189.5 464 188.9 466.9 190.5 467.7 190.3 470.2 205.5 497.8 218.3 524 240.4 543.4 240.1 545.2 241.9 545.1 241.2 547.3 256.8 559.4 269.9 573.6 287.5 584.3 300.7 592.3 314.6 599 329.1 604.4 334.7 605.9 340.2 607.9 345.3 610.5H352.7C364.2 615.9 379.7 615.7 391.4 618.3 396.5 615.9 401.6 618.9 408.3 619 430.5 619.4 456.1 613.7 470.8 612.1 495.4 602.7 520.5 595.3 541 579.7 548.6 578.3 551 571.7 558.8 570.4 562.3 564 572.2 563.8 574.2 555.7 565.3 558.5 555.3 566.7 547.2 573 528.3 582.6 513.5 592.8 491.7 598.4 461.9 611.8 423.6 614.9 388.4 611.3 387.7 610.2 387.4 608.8 387.7 607.4 385 606.9 386.4 610.3 384.6 610.5 363.4 608.5 347.4 603 329.1 598.2 296.7 583.9 267.1 565.5 245.8 540.3 245.3 539 242.1 540.3 241.9 538.8 231.3 523.1 216.5 508.2 207.2 489.4 205.9 486.8 206.2 483.5 204.9 480.8 202.5 475.8 199.1 472.1 197.2 467.8 192.4 456.3 189.8 444.8 185.6 432.3 170.8 388 177 334.5 184.8 290.3 188.4 270.3 199.5 253 204.9 233.9 215.4 218.8 224.5 200.8 236.5 185.3 245.6 176.5 253.8 166.9 261.2 156.7 267.4 154.2 272.5 146.3 278.9 141.3 295.2 128.4 314.7 114.3 333.7 107.3 341.9 99.7 357.8 97.2 366.1 91.9 384.5 88.6 408.6 82.8 427.8 81.1 431.4 80.8 435.6 83.1 437 78.8 437 77.5 436 77 436 75.6H435.7ZM586.8 547.3C591.1 543.8 594.8 539.7 597.6 534.9 601.5 534.6 602.3 531.4 603.8 528.7 617.8 521.1 627.1 503.3 636.2 490.9 644.8 479.3 651.7 458.5 657 445.4 668.3 428.4 671.2 401.6 676.3 375.1 679.4 361.4 681.2 347.5 681.7 333.4 681.7 329.1 681.7 323.2 678.6 320.5 680.2 320.7 681 319.9 680.9 318.2 679.5 298.4 676.1 270 670.1 252.6 663 221.3 648.5 192.1 628 167.5 626.4 163.5 623.7 160 620.2 157.5 615.3 152.3 611 144.6 605.6 139.7 596.2 132 586.4 124.8 576.3 118.2 551.4 100.9 521.1 84.2 485.9 80.4 484.6 80.4 484.1 81.1 484.4 82.7 518.6 90.6 556.7 106.1 580 125.7 580.8 126.1 581.6 126.3 582.4 126.3 583.2 126.3 584 126.1 584.7 125.7 584.4 126.8 583.6 127.2 583.9 128.8 620 152.9 642.4 191.3 661 230.7 664.3 247.3 674.3 267.7 673.4 288.6 680.9 321.1 678 370.1 668.7 399 661.1 422.8 653.3 449 643.3 469.2 642.5 470.9 641.1 471.4 640.2 473 635 484 629.1 494.6 622.5 504.7 622.2 505.1 620.4 504.3 620.1 504.7 619.8 505.1 620.6 507.1 620.1 507.8 619.2 509.1 616.9 510.8 615.5 512.4 610.9 518.3 605.4 523.5 599.3 527.9 593.2 539.3 580.3 543.8 573.9 554.9 579.4 555.8 583.6 550.6 587.2 547.3H586.8ZM330.4 97.2C340 97.5 348.8 87.3 358.9 88 359.4 83.5 363.2 87 364.3 83.3 363.2 83.3 363 82.1 362 81.8 349.7 87.8 339.8 90.4 330.4 97.2ZM294.2 95.7C293.3 98.8 295.4 99.1 296.4 100.3 302.8 95.7 313.6 94.4 316.5 87.4 306.4 85.7 304.9 95.7 294.2 95.7ZM424.5 89.5C427.1 117 429.3 155.9 429.1 179.9 432.1 182.9 428.6 192.2 432.9 193.8 430.1 158.7 429.6 123.3 431.4 88.1 428.9 89.5 427.2 87.7 424.5 89.5ZM461.5 89.5C461.2 112.3 457.8 144 460 169.8 463.3 144.9 468.9 114.3 470 88.8 468.2 87.5 462.4 87.4 461.5 89.5ZM396.7 92.6C401.2 138.5 405.3 192.1 411.4 237 411.9 256.3 420.4 267.5 422.2 285.6 428.3 295.3 427.2 314.6 435.1 320.3 436.6 299.3 433 279.4 432 259.4 426.3 264.7 431.2 277.5 425.8 284 421.5 279.7 423 269.9 418.8 265.5 419.7 223.5 427.9 184.7 424.3 145.9 422.7 129.2 423.3 109.7 419.6 89.5 411.9 90.1 404.3 91.1 396.7 92.6ZM476.1 89.5C475.9 90.1 475.6 90.5 475.2 90.9 474.8 91.3 474.4 91.7 473.9 91.9 470.3 129.4 463.6 159.2 460 196.8 459.2 199.2 456.2 199.3 456.1 202.2 457.8 207 456.4 214.8 456.9 220.7 469.4 180.7 481.8 135.5 493.9 92.6 488 91.3 482.1 90.3 476.1 89.5ZM288.2 94.2C290 93.9 291.8 93.7 291.3 91.1 288.6 90.7 287.6 91.7 288.2 94.2ZM393.1 93.4C388 94.2 377.4 95.5 372.3 98.8 380.4 125.8 388.7 152.9 394.6 182.2 400.6 191.6 399.9 207.7 406.2 216.9 400.8 175 397.9 134.4 392.9 93.4H393.1ZM497.9 94.2C491.1 112 487.3 133.2 481 150.5 478.5 157.3 477.8 165.2 475.6 172.9 474.1 178.3 470.5 183.3 469.4 188.3 466.7 203.1 462.4 217.5 456.5 231.4 458 243.7 453.6 262.8 456.5 275.4 458.1 273.1 459.2 270.4 459.6 267.7 491 222.8 499.4 158.4 520.5 102.5 514.2 98.3 505.5 96.6 497.7 94.2H497.9ZM326.8 98C323 100.3 317.8 104 313.9 103.4 299.4 116.2 279.9 123.4 267.9 138.2 271.5 139.3 273.5 135.2 275.6 133.5 284.2 126.8 296.8 119.6 307.2 112.7 310.5 110.5 312.5 105.7 317.3 106.5 317.2 105.9 317.4 105.3 317.6 104.8 317.9 104.2 318.3 103.8 318.8 103.4 322.1 105.1 326.5 101.4 328.1 98.8 327.9 98.2 327.4 97.9 326.5 98H326.8ZM346.8 107.3C361.3 156.7 381.9 200.5 396.7 250.1 403.9 263 406.6 280.2 413.9 293.2 409.6 222 385.4 164 369.9 101.7 362.1 97.4 354.4 105.2 346.6 107.3H346.8ZM495.7 189.9C494.6 193 492.8 198.1 494.9 201.5 508.4 169.4 527.4 142.9 540.4 110.4 535.2 109 530.5 104.9 523.2 103.4 515 130 504.3 162.2 495.4 189.9H495.7ZM320.3 122C346.4 168.7 370.8 217 395.2 265.5 398.3 266.8 398.2 271.3 401.3 272.5 384.4 218.6 362.2 170.1 345.8 115.8 342.8 115.5 344.7 110.2 341.2 110.4 334.3 114.3 323.6 114.4 320.3 122ZM561.2 121.2C555.4 118.7 551.1 114.9 544 113.5 516.1 168.1 484.7 214.2 468.4 280.2 473.9 276.3 478.2 271 480.8 264.7 481.9 264.9 483 264.6 483.9 264 504.3 237.8 523.3 210.3 536.3 176.8 539.2 177.4 536.8 172.4 540.2 173.7 543.4 164.6 548.4 156.2 554.8 149 556.4 139.4 561.7 138.4 563.4 128.9 566.4 127.8 567.7 125.1 567.3 120.3 564.8 118.2 564.5 122.3 561 121.2H561.2ZM298 135.9C335.5 196 374.6 254 414.5 311.8 415.1 302.2 409.2 296.6 405.2 288.7 390.9 260.7 375.8 234.3 360.5 205.3 358.6 201.8 357.1 200.1 355.8 197.6 354.5 195.1 354.8 192 353.5 189 350.5 182.3 344.6 176.4 341.9 170.5 334.3 153.2 326.2 139.2 318.1 123.4 310.1 125.1 303.1 129.5 298 135.9ZM569.5 127.2C559.1 146 549.5 165.4 537.1 182 536.7 192.8 524.6 199.8 527.1 208.3 544.3 183.6 565.8 163 582.6 138.1 578 134.7 574.8 130 569.5 127.4V127.2ZM237.1 165.2C236.5 167.5 239.2 166.7 238.6 169 247.8 159.2 258.4 150.8 266.4 139.7 255.5 144 247.9 158.2 237.1 165.2ZM275.8 153.6C320.9 206.2 363.8 261.2 410 312.6 370.7 252.3 333.4 198.3 294.3 139 287.4 143.2 279.6 146.4 275.6 153.6H275.8ZM247.3 141.2C225.4 166.1 202.7 190 189.2 223.1 194 224.3 193.5 217.8 195.4 214.5 197.8 210.2 202.6 206.2 203.1 201.3 215.3 185.5 224.6 166.9 240.9 155 242.2 148.3 250.2 148.3 251 141.1L247.3 141.2ZM585.9 178.3C590.4 172.4 596 168.2 599.7 163.6 608.6 152.6 591.4 146.4 585.1 141.2 577.2 152.3 565.8 163.4 560.4 174.4 539.4 193.8 523.8 218.6 505.6 240.8 500.3 258 489.2 269.7 483.3 286.4 495 278 505 268 516.4 259.4 522.4 254.8 533.1 248.3 536.5 238.5 553.9 220.7 570.5 198 585.7 178.3H585.9ZM271.9 155.9C266.8 158.9 265.2 165.2 259 166.7 258.3 169.3 258.3 171.9 259 174.4 290.2 204.9 319.7 235.8 347.7 267.8 350.1 267.5 349.4 270.2 352.3 269.4 361.3 284.1 377.5 291.7 385.9 307.2 395 310.9 397.6 321.2 407.4 324.4 407.4 323 408.7 322.6 410.5 322.9 408.5 311.9 400.3 307.4 394.3 300.5 383 285.7 370.9 271.5 358 258 356 252.5 350.5 250.7 348.8 245.1 327.5 223.9 311.1 197.8 289.4 177.2 287.7 172.6 284.4 168.8 280.1 166.4V162.5C274.9 162.6 276.1 156.4 271.8 155.9H271.9ZM606.6 159.8C591.3 177 575.6 194.2 563.6 214.6 559.8 215.3 555.3 221.6 553.5 226.9 549.9 227.2 546.3 231.3 547.4 233.9 563.8 222.5 577.5 208 592.9 195.1 601.5 187.9 613.1 183 619.1 172.8 613.9 169.3 613 161.8 606.5 159.8H606.6ZM358.9 282.5C347.6 269.9 335.4 258.1 322.6 247 308 226.4 287.4 211.7 272.5 191.4 265.9 189.4 263.2 180.8 258.7 176.8 252.3 171 250.6 179.9 247.9 183 246.2 184.8 243 185.2 241.7 186.8 241.2 187.4 242.2 189.2 241.7 189.9 239.9 192.7 236.1 193.8 237.1 196.8 255.6 209.7 274.8 224.3 291.8 237.8 318.7 258.8 348.3 281.2 376.6 301.8 373.2 294.1 365 289 358.9 282.5ZM459.2 182.2C459.8 181.6 461.2 176.8 458.4 177.5 457.8 179.5 457.2 181.1 459.2 182.2ZM621.9 177.5H619.6C595.7 197.4 573.4 218.8 547.1 236.2 535.9 247.1 524.9 258.2 514.7 270.2 512.4 270.2 513.9 266.3 511.6 266.3 496 282 474.5 292.1 466.9 315.7 482.3 312.8 491.1 296.7 498.5 283.3 505 282.5 504.8 271.2 511.4 273.3 504 284.4 493.7 294 488.3 304.9 510.9 291 535.6 279.5 553 262.4H556.1C565.7 252.6 576.3 243.8 587.7 236.2 601 220.9 620.4 211.8 632.5 195.3 629.3 189.1 625.8 183.2 621.9 177.5ZM450.7 309.5C450.7 263.7 452.4 227 453.8 188.3 452.8 188.3 452.7 187.3 451.5 187.6 451.6 230.6 446.1 271.6 450.7 309.5ZM436.8 284.1C441.1 280.3 438.5 274.9 438.4 270.3 437.5 244.4 438.4 221.6 438.4 205.4 435.9 205 436.6 211.8 434.5 209.3 432.9 203.9 435.1 200.6 432.9 194.6H430.6C433.9 225.2 433.9 254 436.8 284.1ZM370.5 302.6C365.1 296 358.2 290.7 350.5 287.1 313.4 256.5 273.8 228.5 235.5 199.1 228.3 203.4 224.9 211.7 221.6 220 278.8 256.7 340.1 292.1 395.2 326.5 397.5 327.1 396.6 324.4 399 325 400.4 325.9 398.6 330 402.1 328.8 397 317.6 382.8 309 370.5 302.6ZM634.2 199.9C627.1 205.4 622.1 212.6 615 216.1 612.9 221.8 606.4 223 603.4 227.7 589.5 235.9 578.4 247.7 566.4 257.9 563.8 260 559.6 260.9 558.7 264.8 588.1 250.8 613.5 232.7 642.7 218.5 642.8 214.9 642.1 211.4 640.6 208.2 639.1 205 637 202.2 634.2 199.9ZM643.5 219.2C609.1 242.4 570.4 261.5 533.2 281.7 528.6 288.5 522.2 293.9 514.7 297.2 509.9 306.1 496.9 306.7 495.4 318.7 498.5 318.7 500.2 322.6 502.4 321 503.8 317.2 499.8 318.9 500 316.4 508.6 312.4 518.9 321.9 526.3 326.4 525.3 332.8 531.4 332.1 529.4 339.6 520.8 344.2 515.1 353 501.6 346.5 499.7 347 497.8 347 495.9 346.6 494 346.2 492.3 345.4 490.8 344.2 486.8 346.1 480.7 345.9 479.2 350.3 490.9 352.5 503.7 350.7 517 349.6 563.5 345.8 618.5 344.6 666.6 338.8 671.4 334 666.6 324.1 668.2 315.6 642.4 319.9 618.4 320.5 593.4 324.2 572.9 327.2 551.4 331.6 530.1 331.2 544.1 321 561.6 322.6 577.2 314.2 608.7 306.7 640.1 294.6 665.1 288.7 665.8 280.8 664.5 272.8 661.2 265.6 651.4 268.1 638.9 273.5 631.1 276.4 628.4 277.4 624 276.8 621.1 277.9 618.3 279 614.8 282.2 611.1 283.3 588.4 290.6 561.9 298.6 540.2 306.5 528.8 310.8 517.3 317.2 510.1 314.2 560.7 293.6 603.9 265.6 654.3 243.2 652.1 233.7 649.5 224.9 643.5 219.2ZM219.4 223.8C219.4 224.8 218.2 224.7 217.1 224.6 215.5 233.6 208 236.4 210.1 247 225.1 251.3 239.9 262.5 257.9 266.3 259.6 268.3 261.8 269.9 264.2 271 266.6 272 269.2 272.6 271.8 272.5 298 286 320.9 294.8 348.2 308 357.3 309.9 364.5 317.9 373.6 317.2 323.2 285.1 271.3 254.5 219.4 223.8ZM173.1 257.8C168.4 274.6 161.5 286.7 159.2 304.9 156.4 309.5 154.3 314.4 153 319.5 151.2 330.3 147.8 341.9 149.2 349.7 158.7 307.4 172.1 266 189.2 226.2 189.2 225.6 189.2 224.6 188.5 224.6 183.1 235.2 176.3 245.6 173.1 257.8ZM652 247.8C620.8 263.7 587.4 277.2 559.4 296.4 596.1 285 624.3 274.1 660.5 262.4 659.8 256.1 657.6 251.4 656.6 245.5 654.3 245.4 651.5 245 652 247.8ZM463 271.7C458.7 271.9 460.9 278.8 455.3 277.9 454.3 284.5 454.6 291.4 456.1 297.9 467.1 283.8 469.6 265.9 475.4 247 475.4 246.4 474.7 246.1 473.9 246.2 473.1 257.2 462.5 261.9 463 271.7ZM380.5 326.5C381.1 323.6 377.5 324.8 377.4 322.6 337.5 307.1 300.7 290.5 264.8 272.5 263 272.5 262.6 273.8 260.2 273.3 244 264.4 225.8 258.5 208.6 249.3H207.1C202 256 199.3 264.1 199.4 272.5 204 274.3 209 275.1 214 274.8 273.5 295.5 335.3 314.5 390.6 331.9 390.1 327.5 383.3 326 380.5 326.5ZM463.8 291C465.6 295.3 459.5 301.9 460.7 305.7 474.2 299 483.3 281.4 489.2 264.7 491.6 263 493.4 260.8 494.8 258.3 496.1 255.8 496.9 253 496.9 250.1 487 264.8 474.6 277.1 463.8 291ZM417.5 291.8C417.3 282.5 418.8 271.5 414.5 266.3 416.2 275.5 414 285.4 417.5 291.8ZM309.7 309.5C289 303.6 264.9 294.1 244.9 288 229.2 282.7 213.2 278.6 196.9 275.5 193.3 283 190.9 291.1 190 299.4 235.3 309.3 299.9 323.4 353.5 332.6 360.1 336 369.4 334.7 376.6 338.8 382.7 337.6 393.8 343.1 398.1 341.1V337.3C364.5 326.7 339.8 318.2 309.7 309.5ZM439.3 293.3C438.1 291.6 439.3 287.6 436.9 287.1 437 289.7 435.8 293.8 439.1 293.3H439.3ZM664.4 291.8C653 295.5 639.7 297.3 629.8 302.6 609.5 309.1 586.3 313 564.2 323.4 562.3 322.9 555.1 322.9 554.9 326.5 588 323 622 319.2 660.6 313.6 663.7 316 666.8 312.7 668.3 312.8 667.4 304.8 667.2 299.4 666.8 292L664.4 291.8ZM463.9 336.5C468.9 333.5 473.2 329.6 476.8 325 479 325.6 478.8 323.9 480.7 324.2 488.9 314.6 499.9 307.9 508.4 298.7 511 297.4 514.5 297 514.6 293.3 493.2 303.2 473.5 314.8 463.8 336.5H463.9ZM455.3 314.2C455.3 308.3 459.6 306.4 458.4 299.5 455.5 300.8 457.2 299 454.5 298.7 454.2 303.6 452.6 310.5 455.3 314.2V314.2ZM185.4 325.7C256.6 329.4 307.1 336.9 374.3 340.4 350.9 335.8 327.4 330.1 300.3 326.5 263.3 317.6 228.2 311.8 189.2 303.4 188.2 311.7 184 316.9 185.4 325.7ZM454.5 316.5C455.1 320.8 451.3 328.1 456.1 329.4V323.4C462.8 320.4 464.7 312.5 467.7 305.7 467.7 305.1 467 304.8 466.1 304.9 462 308 457.7 314.9 454.5 316.5ZM425.2 319.5C427.6 319.5 428.3 317.9 429.9 317.2 428.3 314.5 428.7 309.7 426 308 424.4 310.5 425.8 315.8 425.2 319.5ZM449.9 332.5C449.2 325.5 451.4 316 449.2 312.4 449.3 317.4 446.8 327.2 449.9 332.7V332.5ZM375.1 320.1C377 320.1 377.5 321.6 378.2 319.3 376.6 319.3 377.2 317.2 375.1 317.8V320.1ZM458.4 330.9C460.3 330 462.4 329.4 464.6 329.4 465.8 324.4 471.1 323.6 471.5 317.8 465.3 320.5 459.9 323.8 458.4 331.1V330.9ZM506.2 320.1C505.4 323.5 507.8 323.7 508.5 325.5 511.5 323.9 514.5 325.5 517.8 325.5 516.8 323.5 515 321.8 512.9 320.9 510.8 319.9 508.5 319.7 506.2 320.3V320.1ZM428.3 334.2C428 328.7 423.8 326.9 423.7 321.3H417.5C419.1 327.5 424.1 330.5 428.3 334.2ZM493.1 321.9C493.1 327.3 498.8 327.5 502.4 329.6 504.2 325.4 496.5 320.8 493.1 321.9ZM431.4 330.5C434.7 329.2 431.4 324 430.6 321.9H426C428.2 324.3 428.4 328.7 431.4 330.3V330.5ZM409.9 327.4L414.5 332C415.9 330.6 419.6 331.5 419.1 328.2 415.7 328.2 417 323.6 413.8 323.5 411.9 324.2 409.6 324.4 409.8 327.2L409.9 327.4ZM436.9 329.7C436.9 327.5 437.5 324.4 435.4 324.3 433.4 326.2 435.6 328.4 436.8 329.6L436.9 329.7ZM522.5 328.9C522.6 328.3 522.6 327.6 522.5 326.9 522.4 326.3 522.1 325.6 521.7 325.1H519.4C519 327.6 519.6 329.4 522.4 328.8L522.5 328.9ZM483.1 327.2C481.9 329.7 480 330.7 482.3 333.3 485.4 333.6 484.4 329.7 486.9 329.4 486.6 335.6 490.7 332.5 493.1 335.6 493.8 334 496.4 334.3 496.2 331.8 492.2 329.9 490.3 325.1 483.1 327.2ZM493.9 337.2V342.6C497.7 344.1 499.8 342.6 503.1 341.8 505.8 344.6 509.3 346.5 513.2 347.2 516.3 341.4 524.7 340.7 526.1 333.3 522.9 330.8 515.7 332.4 515.3 327.2 502.8 325.2 504.2 337.1 493.9 337.3V337.2ZM186.2 328.1C182.5 334.6 182.3 348 182.3 355.8 200.7 353.8 225.9 355.4 250.2 355.1 257.3 355.1 268.2 352.6 274.1 352.7 311.8 354 354.7 353.8 385.1 349.7 389.4 349.1 394.7 351.4 397.5 346.6 339.1 340.1 251.1 334.5 186.2 328.1ZM406 333.4C407.4 333.8 412.5 337 412.9 333.4 412.1 333.1 411.4 332.6 410.8 331.9 410.3 331.2 409.9 330.4 409.8 329.6H406V333.4ZM455.3 345.8C453.1 345.8 450 344.6 447.6 345 440.6 346.4 432 361.5 443.7 365.1 442.6 361.6 442 357.9 442.2 354.3 446 347.5 457.5 348.7 456.1 360.5 456.3 347 482.7 341.3 476.9 331.1 470.4 334.3 465.5 344.9 455.3 345.8ZM420.6 349.7C419.8 354.4 420.1 359.3 421.3 363.9 422.5 368.5 424.6 372.9 427.6 376.7 432.2 379.3 437.4 380.7 442.7 380.5 448 380.4 453.2 378.8 457.7 375.9 458.8 369.7 466.3 366.1 463.8 358.9 460 362.3 459.5 368.8 451.5 368.2 446.4 377.7 435.4 374.3 430 367.4 427.7 357.5 427.4 352.8 433.1 345.9 429.6 337.6 435.3 336.3 439.3 342 440.5 339.2 440.2 334.2 437.8 332.8 429.2 335.8 425.8 343.4 420.6 349.7ZM424.5 337.3C424.6 334.4 423.4 333.2 420.6 333.4 420.4 336.2 422.8 338.7 424.5 337.3ZM456.9 342.7C459.3 343.1 458.9 340.6 460.7 340.4 460.4 338.9 459.8 337.5 458.9 336.3 457.9 335.1 456.7 334.1 455.3 333.4 452.2 337.6 458 338.2 456.9 342.7ZM419.8 339.6C420.4 337 418.5 336.8 416.8 336.5 417.2 338.3 417.2 340.1 419.8 339.6ZM444.5 341.1C445.1 341.4 445.8 341.6 446.5 341.6 447.1 341.6 447.8 341.4 448.4 341.1 449.2 336.7 444.2 338 444.5 341.1ZM402.1 339.6V343.5C402.8 344 403.6 344.3 404.4 344.4 405.3 344.4 406.1 344.3 406.8 343.8 407.6 343.4 408.2 342.8 408.6 342.1 409 341.3 409.1 340.5 409 339.6 406.8 339 404.4 339 402.1 339.6ZM474.6 347.3C478.7 346.2 482.5 344.4 486 341.9 482 338.3 475.4 342.8 474.6 347.3ZM418.3 348.9C417.8 346.5 419.6 346.6 419.1 344.2 417.2 342.4 416.6 343.9 415.2 341.9 412 344.4 415 348.4 418.3 348.9ZM548.6 352C546.6 351.1 544.3 350.7 542.1 350.9 539.9 351 537.7 351.6 535.7 352.7 552 355.6 568.4 357.4 584.9 358.2 593.5 358.7 602.2 357.9 609.6 358.9 628.7 361.7 648.1 363 667.4 362.8 666.9 356.3 666.9 349.9 667.4 343.5 629.8 345 588.3 346.7 548.6 352ZM402.1 352.7C404.5 352.7 404.3 350.3 407.5 351.2V346.6C402 343.7 398.2 348.9 402.1 352.7ZM471.5 354.3C474.7 353.5 474.6 354.3 478.5 354.3 478.5 350.8 472 351.7 471.5 354.3ZM445.3 360.5C449.3 367.3 457.3 357.7 450.7 354.3 452.2 357 450.5 358.6 448.4 359.7 444.1 356.6 452.2 354.6 448.4 352.7 447.2 353.6 446.2 354.8 445.7 356.1 445.1 357.5 445 359 445.3 360.5ZM379 365.9C383.8 367.5 388 362.2 391.3 359.7 393.6 357.6 398.8 358.5 399 354.3 389.8 355.3 383.7 357.6 379 365.9ZM402.1 355.9C403.5 357.6 404.5 359.7 406.8 360.5 408.1 359.5 408.8 357.9 411.4 358.2 411.4 355.8 409.7 355.2 409 353.5 406.3 353.8 403.1 353.7 402.1 355.8V355.9ZM503.9 353.5C493.5 356.8 482.1 353.1 475.4 357.4 525.2 370.3 582.9 374.1 638.8 386.7 646.5 385.7 654.7 388.8 661.9 390.6 661.6 386.9 661.9 384 665 383.7 660.9 378.8 666.3 373.5 665 366.5 610.8 361.9 555.2 359.7 503.9 353.5V353.5ZM362 356.6C360.5 358 362.6 358.6 362 361.3 366.3 362.8 368.6 357.6 372.8 356.6 377.1 358.9 382.1 361 384.3 355.9 376 353 369.9 357.6 362 356.6L362 356.6ZM146.2 364.3C147.1 362.3 149.5 357.9 146.2 355.7 146.2 358.5 143.1 363.5 146.2 364.3ZM182.5 358.9C182.1 366.7 182.3 374.4 183.3 382.1 223.7 374.2 265 368.9 302.8 363.5 314 362 325.1 359.7 336 356.6 288.2 356.9 235.4 357.9 182.3 358.9H182.5ZM344.1 362C343 365.1 345.8 364.4 345.6 366.6 348.2 366.1 348.2 363.1 351.1 362.8 351.1 363.8 352.4 363.5 352.6 364.3 353.2 366.5 351.5 366.3 351.8 368.2 354.1 368.2 357.9 368.5 358.8 364.3 356.7 359.5 348.6 358.8 344.1 362ZM359.5 371.3C362.5 370.3 365.6 369.5 368.8 369 368.8 363.9 372.4 362.2 376.5 363.5 378.2 358.2 371 361.8 369.5 359.7 367.7 364.8 361.3 365.9 359.7 371.3H359.5ZM396.5 360.5C396.1 364.1 400.8 362.3 400.4 359.7 398.4 359.1 398.6 360.8 396.7 360.5H396.5ZM408.1 361.3C408.2 362.1 408.4 363 408.9 363.8 409.3 364.6 410 365.2 410.7 365.8 411.4 366.3 412.3 366.6 413.2 366.8 414.1 366.9 415 366.9 415.8 366.6 419.2 359.6 413.8 359.3 408.3 361.3H408.1ZM183.9 384.4C182.8 394 183.8 403.8 186.9 413 237.3 399.5 292.7 389 347.4 372.8 345.9 369.7 342.7 368.3 340.4 365.9 341.1 364.4 342.9 362.2 341.2 360.5 290.2 366.2 237.5 376.9 183.9 384.4ZM471.5 360.5C471.2 361.9 468 360.5 469.2 363.5 478.2 367.1 487 371.2 495.4 375.9H500C508 381.1 516.9 384.7 526.3 386.7 529.2 390.7 540.3 390.6 538.6 396.7 517.1 387 490.1 374.7 466.9 366.6 467.2 372.1 473.7 372.6 476.9 374.3 507.5 391 536.6 408.9 567.7 425.3 568.8 425.5 569.9 425.2 570.8 424.5 571.4 427.8 573.8 429.3 577.8 429.2 595 443.5 618.5 450.7 635.6 463.9 638.4 456.4 642.9 450.6 644.2 441.5 629.9 436.5 612.8 425.7 597.2 422.2 580.3 411.4 557.7 406.2 540.1 395.9 541.6 394.5 545.8 394.8 544.7 398.3 553.3 395.9 560 404.5 568.6 403.7 581.2 413.3 599.9 416.6 613.4 425.2 624.3 427 633.2 434.9 646.5 439.1 649 432 651.4 424.9 654.2 418.2 601.6 396.7 528 377.7 471.5 360.5ZM390.5 377.4C397.9 377.4 406.1 368.3 401.3 363.5 399 369.4 392.2 370.9 390.5 377.4ZM367.4 379.8C358.5 388.1 346.4 393.2 338.1 402.1 355.7 392.5 377.1 389.2 388.2 372.8 392.9 372.8 392.5 367.8 395.9 366.6 396 366.1 395.9 365.6 395.6 365.2 395.3 364.8 394.9 364.4 394.4 364.3 383.8 365.2 384.8 383.1 367.4 379.8ZM134.5 415.3C140.3 399.4 141.4 382.7 145.3 365.9 138.8 382 137.6 396 134.5 415.3ZM406 373.6C397.9 376.3 395.9 385.1 392.1 392.1 396.9 390 401 386.6 403.9 382.2 406.8 377.8 408.3 372.7 408.3 367.4H406C404 369.3 406.5 370.8 406 373.6ZM517 369V371.3C567.1 384.5 608 398 655.1 413.7 656.3 406.8 662.7 401.4 659.7 392.9 612 382.8 567.4 376.8 517 369ZM464.5 375.1C517.8 412.6 569.9 451.3 623.4 488.6 625.7 480 631.7 475.3 633.4 466.2 576.5 431.8 519.2 402.4 464.5 370.5 464.2 371.2 464 372 464 372.8 464 373.6 464.2 374.4 464.5 375.1ZM362 374.5C366.1 376.2 370.5 377.3 374.9 377.6 374.9 374.4 379.9 376.4 378.8 372.2 376.6 371.5 370.5 376.3 369.5 371.5 366.8 372.3 363.7 370.9 362 374.5ZM409 378.8C410 378.9 410.9 378.7 411.7 378.3 412.6 377.9 413.3 377.2 413.8 376.4 414.3 375.6 414.5 374.7 414.5 373.8 414.5 372.8 414.2 371.9 413.7 371.1 409 370.7 409.9 375.8 409 378.8ZM355.8 377.3C356.2 374.9 353.9 375.1 352.7 374.2 297.8 392.9 247.7 420.4 193.9 439.1 194.9 449.9 200 456.6 203.1 465.3 212.5 462.3 221.5 458.4 230.1 453.7 240.9 448 252.8 443.2 264 437.5 285.5 426.6 308.6 418.4 328.9 404.3 330.7 404.6 330.5 402.9 332.7 403.6 341.5 393.4 355.5 388.3 364.3 378.1 360 376.9 360 378.5 355.8 377.4V377.3ZM417.5 380.4C419.1 379.6 421.4 375.8 418.3 374.9 418.8 377.9 414.1 379.4 417.5 380.5V380.4ZM470 385C473.6 388.6 476.6 390.3 480 393.6 492.4 405.2 502.8 418.8 517 428.3 517.8 430.4 519.1 432.2 520.7 433.7 522.3 435.2 524.2 436.3 526.3 436.9 551.7 463.5 579.3 484.3 605.7 510.1 610.7 504 615.7 498.1 620.3 491.6 604.6 477.8 585.5 467.2 570.2 452.9 568.4 453.2 568.6 451.5 566.4 452.1 544.9 436.2 523.6 419.8 500.8 405 489.7 393.5 474.7 385.9 462.1 375.7 462.6 382 466.7 382 470 385.1V385ZM382.8 383.6C371.5 396.6 357 409.8 345.8 425.3 364.4 412 386.4 402.2 395.1 379 389.9 379.4 388.3 383.5 382.8 383.6ZM423.7 383.6C426.4 384.1 426 381.4 426 379H423.7V383.6ZM463 395.2C462.5 397.6 464.3 397.5 463.7 399.8 468 407 472.7 412.7 476.6 419.1 490.9 440.6 505.2 460 519.7 480.1 522.2 483.5 523.3 487.6 525.9 490.9 531.3 496.8 536.5 503 541.2 509.4 542.1 511.1 543.2 512.6 544.3 514.1 549.2 519.9 550.5 526.3 557.5 528.7 559.7 535.7 565.2 539.6 569 544.9 575.5 540.5 581.3 535 586 528.7 586.3 524.1 582.4 523.6 580.6 521 570.1 504.8 554 494.1 543.6 478 522.9 454.4 501.3 432.1 481.1 406.9 479.9 405.7 479.1 404.1 478.8 402.3 473.6 400.1 471.3 394.9 467.2 391.5 465.6 386.7 461.2 384.6 459.5 379.9 458.1 379.9 457.8 379.1 456.4 379.2 454.5 385.8 459.7 391.7 463 395.2H463ZM403.6 396.7C406.5 391.4 412.9 389.5 412.9 381.3 406.6 382.4 400.6 391.3 403.7 396.7H403.6ZM414.4 399.8C416.5 394.6 423.5 390.6 420.6 382.9 419.6 382.9 419.5 381.9 418.2 382.1 415.4 385.7 410.5 394.6 414.5 399.8H414.4ZM424.4 400.6C425.7 395.7 431.1 388.3 427.5 383.6 423 387.1 422.2 395.5 424.5 400.6H424.4ZM436 394.4C437.2 391.2 437.2 387.7 436 384.4H432.9C431.4 387.4 432.8 393.6 436 394.4H436ZM446 397.5C451 405.7 452.7 421.2 459.1 425.3 455.1 412.4 452 399.3 449.9 385.9 448.9 385.9 448.8 384.9 447.6 385.1 445.2 387.4 446.2 393.1 446.1 397.5H446ZM306.5 385.9C266.5 397.3 228.4 405.5 186.9 416.1 189 423 190.4 430.6 192.3 437.6 216.2 427.4 241.4 417.9 261.2 407.4 261.2 408.9 261.7 409.1 262.7 408.3 275.1 402.1 288.1 396.9 301.4 392.8 301.9 388.5 311.4 390.2 309.1 385.8L306.5 385.9ZM443 391.3C444.5 390.7 444.2 385.6 442.2 385.9 441.5 386.6 440.1 392 443 391.3ZM247.9 497.1C276.3 477.7 303.1 456.6 331.1 436.8 344.5 419.8 361.2 406 373.6 388.2 357 397.9 338.6 403.1 322.6 412.2 313.6 417.3 305.4 425.5 297.1 431.5 291.5 435.6 285.6 439.5 279.6 443 274.1 449.1 267.6 454.1 260.3 457.7 254.6 463.3 248 468 240.9 471.6 234.3 478.9 224.7 483.2 217.8 490.1 218.4 497 224.4 505 228.6 511 235.4 506.9 241.9 502.3 247.9 497.1ZM385.1 401.4C379.2 409 373.8 416.9 368.9 425.3 365.6 429.6 363.5 434.6 362.8 440 373.1 427.5 384.5 415.9 396.7 405.2 396.7 399.5 400 397.2 399.8 391.3 399.8 390.7 399.1 390.4 398.2 390.6 395.7 395.5 389 397.1 385.1 401.4ZM525.5 574.3C530.3 569.7 546 565.3 547 559.6 547.7 556.3 543.8 552.2 543.1 551 540.3 546.1 537.6 539.8 535.4 534.8 517.2 504.8 500.4 473.9 485.3 442.1 475.1 426.3 467 408.6 455.2 394.3 455.2 393.5 454.4 393.1 453.7 392.8 467 464.1 499.9 515.5 525.5 574.3ZM378.2 456.9C390.2 444.5 397 426.8 407.5 413 408.4 404.7 410 401.5 410.6 393.7 391.9 406.8 388 434.8 378.2 456.9ZM436 416.8C443.2 421.4 439.3 437.2 445.3 443 444.3 427.1 447.1 406.1 440.7 393.7H438.4C435.7 402.2 439 410.7 436 416.8ZM426 450C426 431 437.9 410.6 429.9 395.2 421.1 409.4 422.8 432.4 426 450ZM404.5 453.1C409.1 444.5 411.9 431.1 416.1 419.9 417 417.3 419.3 415.6 419.9 413 421.2 407.6 421.7 399.1 418.4 397.5 408.9 410.8 405.3 433.9 404.3 453.1H404.5ZM501.7 422.9V426.2C509.8 433.3 517.1 445.1 524 450.9 531 461.1 541.2 468.1 547.2 479.4 563.9 493.3 575.7 512.1 591.9 526.5 593.9 520.3 600.2 518.3 601.9 511.8 562.2 473.1 519.4 437 479.3 398.4 485.3 407.8 492.8 416.1 501.6 423L501.7 422.9ZM318.9 454.6C308.3 461.9 302.7 474.4 291.9 481.6 277.9 499.5 262.4 516.1 247.2 532.5 248.8 538.7 258.9 542.2 262.6 548.8 272.3 536.2 283.4 524.8 295.7 514.8 314 489.8 337.7 470.3 356 445.3 360.6 431.2 370.7 422.5 376 409 376 408.2 375.1 407.8 374.5 407.5 357.4 424.7 332 433.7 318.8 454.6L318.9 454.6ZM449.2 426.8C447 440.7 447.5 454.8 450.8 468.5 457.8 512.9 469.2 552.9 479.3 594.3 487.9 590.5 497.1 590.6 502.5 582.7 496.9 565.8 492.2 548.5 488.6 531.1 485.1 528.4 485.9 521.4 483.2 518.2 476.1 481.4 464.4 445.6 448.5 411.7 445.6 414.7 447.3 424.3 449.2 426.9L449.2 426.8ZM322.6 504.8C310.9 520.1 302.8 539.3 290.2 553.4 290.5 556.8 288 557.4 287.9 560.4 286.7 560.9 285.7 561.8 285 562.9 284.3 564 284 565.3 284 566.5 289.4 567.6 296.2 576.5 305.5 578.1 310.2 569 317 561.9 320.2 551.1 327.9 544.4 331.4 533.4 337.4 524.1 338.8 521.7 341.2 519.4 342.8 517.2 349.8 506.8 356.3 495.9 362.1 484.7 364.6 479.8 368 475.5 369.8 471.8 373.1 464.1 375.4 452 379.8 441.7 383.8 432.3 390.5 424.4 389 415.4 363.2 442.4 338.7 469.6 322.6 504.8ZM132.2 422.2H135.3C135.6 419.8 134.3 419.1 132.9 418.3 132.6 418.9 132.3 419.5 132.2 420.2 132 420.9 132 421.5 132.2 422.2ZM433.7 420.7C431.7 429.7 431.1 439.7 429.9 447.7 428.6 455.7 425.5 463.5 425.2 471.6 424 491.6 426.2 511.6 426.8 532.6 427.5 558.4 426.8 583.6 429.9 605.2 437.2 603 445.3 603.7 451.4 601.3 451.4 591.2 450.7 580.4 450.6 568.1 450.4 548.5 448.5 526.3 447.5 504 446.9 490.3 448 476.1 445.9 463.9 443.1 447.5 437.3 433.4 435.9 418.3H433.6L433.7 420.7ZM409 450.8C407.9 453.6 405.4 455.8 404.4 458.5 403.4 461.2 403.9 465.4 402.9 468.5 399.7 477.6 397.1 486.9 395.2 496.3 388.7 531.3 384 566.8 378.2 602.1 385.5 604 393 604.8 400.6 604.4 404.9 569.3 412 535.8 416.8 504.8 421.3 477.5 422.6 449.8 420.6 422.2 420.6 421.6 420 421.3 419.1 421.4 414.9 430.8 412.6 441.5 409 450.8ZM206.5 468.5C205.3 475.8 211.7 482.3 215.1 487.8 245.5 466.7 273.2 444.8 303 424.5 303 423.6 303 422.3 302.2 422.2 270.6 438.3 237.7 452.7 206.5 468.5ZM376.9 464.7C362 489.1 355.9 522.2 342.2 545.7 339.8 562.4 331.1 572.8 328.3 588.8 335.5 592.7 343.3 595.4 351.4 596.5 364.3 558.7 378.7 522.6 392.3 484.5 393.4 481.5 396.1 479.2 396.9 475.9 401.2 459 401.2 441.5 405.5 422.7 405.5 422.1 404.9 421.8 404 421.9 396.2 437 387.1 451.3 376.6 464.7H376.9ZM124.7 448.5C126.6 454.4 123.1 459.2 123.1 465.4 130.4 457.2 126.2 438.1 133.2 431.5 133.2 455.5 124.3 477.6 122.4 502.5 127.5 500.4 125.3 495.5 126.2 490.9 128.7 478 133.7 460.8 133.2 450 136 442.4 137.3 434.2 137 426.1 124.3 419.5 129 442.2 124.5 448.5H124.7ZM86.9 426.9C86.5 429.7 87.8 430.7 88.4 432.3 100.1 430 112.1 429.7 123.9 431.5V426.9C111.8 423.7 100.9 426.7 86.7 426.9L86.9 426.9ZM83.1 428.5C70.5 433.4 62.6 438.2 50.7 443.1 32.3 459.3 14.6 476 9 504.9 0.4 519.7 7.2 544.5 10.5 558.9 18.1 569.9 25.9 580.4 33.7 591.3 41.4 596.4 48.9 601.8 56 607.5 61.2 607.2 67.2 613.2 68.4 606 45.4 599.3 25.4 578.4 15.2 555.1 10.6 544.3 8.7 532.6 9.5 520.9 11.7 500.3 20.6 481 35 466.2 34.5 463.8 35.8 463.4 35.8 461.6 50.1 448.7 66.9 439 85.1 433 84.1 431.7 85.4 428.1 82.8 428.4L83.1 428.5ZM102.1 434.8H105.2C105.2 432.8 104 432.4 102.9 431.7 102.6 432.5 101.8 432.9 102.1 434.8ZM139.9 437.9C173.1 449 199.3 494.3 186.9 538.2 180.6 560.9 165.4 584.5 147.6 592.2 134.7 605.5 114.2 611 94.4 611.5 85.2 611.8 78 606.1 72 610.8 84.9 620.6 108.5 613.7 127.6 610.8 147.4 600.2 170 585.7 181.5 562.9 193.9 538.4 199.4 497.4 182.3 471.8 176.3 453.9 161.7 444.9 148.4 434.8 146.1 437 144.6 431.9 140.6 433.2 140.6 432.8 140.6 432.3 139.9 432.5V437.9ZM89.8 438.7C93.7 455.9 93.8 478.9 98.4 493.5 98.4 497.2 97.4 502.1 101.5 502.1 105.8 498.9 103.7 492.5 104.6 487.4 107.1 471.6 110.5 451.3 111.5 436.5 104.2 435.3 96.7 436 89.8 438.4V438.7ZM114.5 437.1C112.9 451.6 109.7 468.3 109.8 481.9 115.1 479 112.1 473.5 112.9 469 114.5 459.9 119.8 449.6 119.1 438.1 117.5 437.1 115.7 435.6 114.5 436.9V437.1ZM67.4 447.1C70.1 456 76 461.9 77.4 471.8 84.9 480.5 87.2 494.5 94.4 503.5 95.5 484.2 87.9 456.9 86.7 439.4 79.7 440.2 73 442.8 67.4 446.9V447.1ZM489.2 446.4C506.9 476.5 522.1 509.2 540.9 538.2 543.4 545.2 547 551.7 551.7 557.5 555.4 556.1 563.2 552.1 565.5 546.7 538.5 513.8 514.5 477.8 489.2 443.4L489.2 446.4ZM129.9 490.1C138.2 484.5 142.2 475.1 148.4 467.8 152 463.4 157.4 460.7 158.4 454.8 151.3 451.7 147.7 445 138.4 444 135.4 458.6 131.8 473.1 129.9 490.1ZM85.1 507.4C72.1 492.1 58 477.9 42.7 464.9 36.9 471.5 29.8 476.5 28.1 487.3 49.3 494.4 66.1 504.9 86.7 512.7 86.7 507.7 91 507.4 89.8 501.2 78.8 485.8 74.4 464.1 62.8 449.5 57.6 453.8 50.1 455.4 46.6 461.1 49.4 467.2 54.3 472.2 60.5 474.9 68 487.2 80 495 87.4 507.4L85.1 507.4ZM231.7 515.1C236 520.7 239 527.3 245.5 530.5 267.3 504.9 291.3 481.6 312.6 455.6 312.6 455 312.6 454.1 311.9 454.1 285.4 475.2 257.7 492.1 231.7 514.8V515.1ZM151.4 470.9C146.2 473.7 143.2 479.9 139.9 484 135.6 489.4 126.3 495.2 127.6 503.3 142.5 494.1 159.5 486.8 174.6 477.8 171.8 470.2 167 463.5 160.7 458.5 158 463 153.2 465.4 151.4 470.9ZM116.8 496.3C122.1 490.8 124.7 474.5 122.9 467 120 475.9 118.9 488.9 116.8 496.3ZM320.3 492.5C316.7 492.1 314.5 499.3 310.3 501.1 297.1 519.7 277.1 534.2 264.8 551.3 269.8 555.9 275.3 560 281 563.6 300.1 536.2 317.2 506.7 335 477.9 335 477 335 476.1 333.5 476.4 328.1 480.9 323.7 486.3 320.3 492.5ZM505.3 583.5C511 581.7 516.5 579.1 521.5 575.8 506.8 543.9 493.1 511.2 477.5 480.1 484.6 513.9 496.9 548.8 505.5 583.5H505.3ZM125.1 507.1C125.1 511.1 121.9 511.7 122.8 516.4 141.3 511.4 164.4 506.6 181.4 500.9 181 493.8 178.9 487 175.2 480.9 159.1 490.3 141.7 498.1 125.2 507.1H125.1ZM106.5 500.2C109.3 497 112.3 486.7 108.9 482.4 107.6 488.3 106.9 494.2 106.7 500.2H106.5ZM19.6 510.2C38.2 510.6 59.8 514.5 82.1 514.8 64.1 504.9 43 497 25.8 488.6 23.6 495.3 18.5 502.7 19.6 510.2ZM455.9 600.5C462.5 600 466.5 596.8 474.4 595.9 467.6 560.5 458.6 527.3 451.3 492.6 452.9 530.2 453.8 567.3 455.9 600.5ZM403.5 604.4C410.5 607.4 418.5 604.4 425 604.4 422.7 570.3 423.8 529.7 420.3 496.3 415 533.4 409.2 567 403.7 604.4H403.5ZM113.7 517.2C115.2 512.3 119.8 503.1 116.8 498.6 116.1 504.7 112.1 511.4 113.7 517.2ZM355.1 598.4C362.5 600.5 368.3 600.6 374.3 603 378.2 567.5 388.2 534.1 390.5 499.7 377.5 533.8 365 562.5 355.1 598.4ZM308.8 580.6C314.2 583.1 318.7 587.2 324.2 588.3 329.4 570.6 337.4 555.7 341.9 537.4 348.8 527.3 353 515.6 354.3 503.4 340.1 530 322.1 552.8 308.8 580.4V580.6ZM112.1 520.9C111.4 523.4 114.6 522 115.2 523.2 120 517.8 123.1 511.1 123.8 503.9H121.5C119.7 511 117.5 520.3 112.1 520.9ZM132.9 517C130.6 517.6 126 516.1 125.2 520.1 142.5 522.2 165.9 526.6 182.3 527.8 181.7 520.1 185.8 508.7 180.8 503.9 166.8 509.2 148.1 513.1 132.9 517.2V517ZM96.7 510.1C98.8 508.8 103.3 510.1 102.9 506.2 102 505.6 101 505.1 100 504.8 98.9 504.5 97.8 504.5 96.7 504.7 96.1 505.5 95.8 506.5 95.8 507.4 95.8 508.4 96.1 509.4 96.7 510.2V510.1ZM92.1 516.6C92.5 513.3 96.4 510.3 92.1 508 91.2 510.3 87.4 515.2 92.1 516.6ZM92.9 528.1C96 533.3 107.6 538 109.8 529.7 103.8 530.8 97.7 531 96.7 525 95.5 517.7 103.8 517.2 105.3 511.9 97.3 510.3 91.5 517.6 92.9 528V528.1ZM17.2 514.8C16.1 522 16.1 529.2 17.2 536.4 35.6 531.6 65.1 531.2 88.1 523.2 88.5 521.4 86.7 521.6 87.4 519.4 64.1 516.9 41.8 513.3 17.2 514.8ZM103.6 525.7C104.5 526.1 105.6 526.2 106.5 525.9 107.5 525.6 108.4 525 108.9 524.1 109.3 521.7 107.9 521.1 107.4 519.5H103.7C103.1 521.5 103.1 523.6 103.7 525.7H103.6ZM166 528C160.7 530.4 153.1 526.9 145.2 525.7 137.3 524.4 120.1 519.3 116.7 527.2 133.5 536.6 155.4 543 174.5 551.9 176.1 544.2 182 538.1 179.9 531 175.8 530.2 169.7 530.8 166.1 528H166ZM90.5 527.2C70 539.1 49.2 550.7 28 561.9 28.6 572.3 35.1 576.9 41.8 582.8 56.9 563.9 76.3 549.5 92 531.1 91.2 530.1 89.9 529.5 90.5 527.2H90.5ZM18.8 539.6C17.8 549.8 23.1 553.7 25 561.1 40.5 549.2 61.6 542.6 77.4 530.2 58.4 531.6 35.3 537.4 18.8 539.6ZM130.6 544.9C139.5 555.7 149.6 565.2 160.7 573.5 163.7 566.2 171 563.2 171.5 553.4 151.1 545.7 135 537.7 115.2 530.3 118.9 536.5 124.2 541.6 130.6 544.9ZM67.4 599C73 602.1 79.4 603.7 85.9 603.6 88.7 579 98.5 558.2 96.7 534.7 95.9 534.7 95.1 534.5 94.4 534 84.3 555.6 76.3 575.6 67.4 599ZM113.7 534.1C113.7 535.6 110.8 532.9 109.8 534.9 118.9 554.1 129.3 572 138.4 591.3 145.7 586.9 153.5 583.2 156.9 575 142.4 561.5 127.6 548.3 113.7 534.1ZM102.1 537.2V548C105.7 551.9 104.8 560.3 105.2 567.3 109.5 578.9 108.1 591.7 112.9 602.1 121.5 600 132.4 596.7 136 592 126.3 576.5 116.9 554.1 106.7 536.5 105.4 537.8 104.7 536.3 102.1 537.2ZM43.5 585.8C50.8 589.4 53.7 597.3 64.3 597.4 72.6 579.6 78.8 560.1 88.2 541.8 88.2 541.3 88.2 540.3 87.4 540.3 73.1 555.8 56.3 568.8 43.5 585.8ZM89.8 604.4C95.9 604.6 102.1 604.3 108.3 603.6 106.2 585.9 102.2 570.1 101.3 551.1 100.3 551.1 100.3 550.1 99 550.4 96.8 566.7 90.5 586.9 89.8 604.4Z" class="a"/></g><defs><clipPath><rect width="684" height="621" fill="white"/></clipPath></defs></svg>