<svg xmlns="http://www.w3.org/2000/svg" width="689" height="707" viewBox="0 0 689 707" fill="none"><style>.a{fill:black;}</style><g clip-path="url(#clip0)"><path d="M353.3 286.7C356.9 288.8 355.6 288.4 354.6 290.5 348 302.9 329.2 317.4 316.8 330.8 312.5 335.5 310.3 342.3 304.3 344.6 299.8 338 310.5 337.2 310.5 330.8 325.7 317 338.4 300.8 353.3 286.7Z" class="a"/><path d="M275.3 400.1C272.9 402.8 271.3 406.2 266.5 406.4 266.6 405.4 266.9 404.4 267.4 403.5 267.9 402.6 268.6 401.8 269.5 401.2 270.3 400.6 271.2 400.2 272.3 400 273.3 399.8 274.3 399.9 275.3 400.1Z" class="a"/><path d="M274.1 410C272.2 415.3 266 416.2 260.2 417.6 263.8 413.5 268.7 410.8 274.1 410Z" class="a"/><path d="M251.4 471.5C253.5 471.2 253.6 472.7 255 472.8 276.4 521.7 303.6 565 327.9 611.2 337.6 609.2 340.9 600.7 351.8 599.9 344.3 609.6 330.4 616.9 317.9 622.6 299.1 631 279.4 638.7 255 638.9 255 633.8 261.6 635.3 266.3 635.1 259.4 579.5 246.4 531 241.3 477.9 256.2 524.8 258.7 588.7 272.7 632.7 279 633.9 290.2 629.1 296.6 626.4 286.9 596.3 275.9 567.5 267.7 535.8 282.8 560.6 287.6 595.6 300.4 622.7 309.1 621.7 317.6 619.1 325.4 615.1 300.4 567.8 273.3 522.4 251.4 471.5Z" class="a"/><path d="M246.3 475.5C257 489.4 261 512.1 268.9 534.6 257.7 518.6 252.4 496.6 246.3 475.5Z" class="a"/><path d="M100.6 641.6C76.4 651.5 53.5 641.2 28.9 646.6 46.4 635.1 75.8 642.4 100.6 641.6Z" class="a"/><path d="M103.1 641.6C105.7 641 108.4 641.5 110.6 642.8 110.2 643.5 109.6 644.1 108.8 644.5 108.1 644.9 107.2 645 106.4 644.9 105.6 644.7 104.8 644.3 104.2 643.7 103.6 643.1 103.2 642.4 103.1 641.6Z" class="a"/><path d="M111.9 644.1C112.8 642.4 124.2 640.9 123.2 645.3 119.4 645.3 115.6 644.9 111.9 644.1Z" class="a"/><path d="M140.8 656.7C119.1 654.7 97.5 659.4 80.4 657.9 96.1 653.9 112.1 651.8 128.2 651.6 132.9 651.8 139.8 651.6 140.8 656.7Z" class="a"/><path d="M69.1 656.7C53.1 665.2 27.8 661.3 3.8 663 5.1 657.5 11.2 658.5 15.1 657.9 31.3 655.5 50 656.6 69.1 656.7Z" class="a"/><path d="M259 660.4C261 660.4 263.7 659.8 264 661.7 265.3 665.9 260.1 663.6 257.7 664.2 258.5 663.1 259 661.8 259 660.4Z" class="a"/><path d="M235.1 664.2C230 668.3 211.5 661.6 213.7 669.2 151.2 667.7 92.3 665.7 26.4 670.5 32.3 662.1 45.3 665.9 55.3 665.5 79.3 664.3 106.3 660.4 129.4 661.7 138.9 662.2 146.9 666.4 153.3 663 179.3 671 207 654.6 235.1 664.2Z" class="a"/><path d="M512.9 664.2C514.6 661.3 521.6 663.7 525.4 663 524.2 665.8 516.4 665.2 512.9 664.2Z" class="a"/><path d="M423.6 669.2C410.7 668.7 408.3 668.2 393.5 668 396.1 662.8 419.9 663.5 423.6 669.2Z" class="a"/><path d="M688.8 664.2C689 665.3 689 666.4 688.8 667.5 688.6 668.6 688.2 669.6 687.5 670.5 685.1 666.9 676.2 670.1 675 665.5 677.8 663.1 684.3 664.6 688.8 664.2Z" class="a"/><path d="M299.2 666.7C291.1 674.6 269.4 668.8 256.4 671.7 266.1 665.5 283.6 667.1 299.2 666.7Z" class="a"/><path d="M220 668C225.5 668.4 233 666.7 233.8 671.6 228.4 671.4 221.3 672.6 220 668Z" class="a"/><path d="M477.7 669.2C477.7 673.3 472 671.9 468.9 672.8 467.1 667.8 475.7 666.5 477.7 669.2Z" class="a"/><path d="M235.1 670.5C235.7 668.7 246.4 667.5 245.1 671.7 241.5 671.6 236.9 672.5 235.1 670.5Z" class="a"/><path d="M621 674.3C621.8 679 612.2 676.6 610.9 675.5 610.6 672.1 619.8 672 621 674.3Z" class="a"/><path d="M680.1 674.3C678.3 679.7 671.7 674.3 668.8 676.8 670.7 671.6 675.1 674.6 680.1 674.3Z" class="a"/><path d="M90.5 675.5C91.3 681.8 78.4 679.4 75.4 678.1 77.4 671.6 83.5 676.7 90.5 675.5Z" class="a"/><path d="M134.5 678.1H106.9C112.8 674.4 131 673 134.5 678.1Z" class="a"/><path d="M353.3 679.3C340.5 676.9 324.2 684.1 318.1 676.8 331.1 679.1 346.2 671.8 353.3 679.3Z" class="a"/><path d="M364.6 675.5C364.6 679.5 356.6 678.8 355.7 678.1 355.9 674.5 361 675.7 364.6 675.5Z" class="a"/><path d="M303 676.8C302.3 684.1 289.3 679.1 282.8 680.6 284.6 674.3 295.9 677.6 303 676.8Z" class="a"/><path d="M681.3 681.8C677.4 691.1 662.2 684 653.7 683.1 662.4 680.4 674.7 678.5 681.3 681.8Z" class="a"/><path d="M310.5 689.5C284.3 688.6 252.3 696.8 223.8 692 230.3 686.8 239.1 691.2 248.7 690.7 270.7 689.5 297.2 680 310.5 689.5Z" class="a"/><path d="M313 686.9H321.8C322.8 691.6 315.9 688.5 313 689.4V686.9Z" class="a"/><path d="M506.8 690.6C498.8 687.1 481.8 698.4 476.6 689.4 487.1 691.9 500.7 684.6 506.8 690.6Z" class="a"/><path d="M661.2 689.5C661.2 695.6 656.3 691.9 652.4 692 653.6 689.5 657.2 689.2 661.2 689.5Z" class="a"/><path d="M553.2 699.4C535.7 701.8 518 702.2 500.4 700.7V697.1C514.5 696.2 543 691.9 553.2 699.4Z" class="a"/><path d="M559.4 617.7C564.2 616.6 563.3 621.2 566.9 621.2 571.4 618.2 576.5 615.7 579.5 611.2 566.8 599.1 549.1 592.1 534.3 582.2 536.8 594.8 555.5 602.1 559.2 617.5 547.2 609.8 541.4 596 530.3 587.3 532.5 600.2 541 617.8 545.4 632.6 550.2 635.2 553.5 630.1 556.7 632.6 553.2 637.9 541 641.1 534.1 638.9 532.9 634.3 539.1 637.1 541.6 636.3 537.2 618.1 530.8 600.4 522.8 583.5 520.5 602.7 526.4 624.1 526.6 641.4 502 641.4 475.8 630.9 461.2 612.4 437.9 582.8 438.5 528.1 471.3 505.5 454.1 461.4 457 404.9 438.6 362 439.3 360.2 437.1 355.5 439.8 355.7 422.7 323.6 404.6 296 377 271.4 360.4 256.7 339.9 241.5 315.4 232.4 311.8 233.2 312.2 237.7 307.8 237.5 308.2 238.7 308.8 239.8 309.7 240.7 310.6 241.6 311.7 242.2 312.9 242.5 300.7 243.5 288.9 231.2 277.7 236.2 284.8 243.3 299.1 243.3 310.3 246.3 310.8 248.4 309.4 248.6 307.8 248.8 338.6 257.6 367.3 285.2 390.8 309.2 408.6 344 431.8 373.9 433.6 425 428.7 424.4 431.4 416.3 428.6 413.6 389.3 418.1 350.8 424.4 311.7 426.2 339.8 414 389.2 414.7 428.6 409.9 430.3 400.7 425 390.9 422.3 382.2 380.8 390.6 346.3 405.9 304.1 413.6 307.7 406.2 320.4 408.1 325.6 402.3 359.2 397 384.8 383.6 418.6 378.4 420.8 368.8 413.4 359.7 409.8 352 379 367.3 344.9 386 311.7 394.9 340.3 376.4 375.6 364.8 407.2 349.6 400.7 333.1 390.8 318.1 378.3 305.6 350.9 319.7 334.9 345.2 307.9 359.7 323.2 339.7 346 327.5 362 308.1 367 307.3 369.3 303.7 373.3 301.8 364.1 287.5 347.6 280.4 334.3 270.4 320.4 290.4 307.1 311.1 294.1 332 298.5 345.9 310.6 361.8 305.4 377.3 336.1 362.3 360.6 334.4 392.1 324.5 364.6 346.8 332.2 364.3 302.9 384.8 299 410.2 301.9 426.3 305.4 451.5 307.8 454.2 315.5 451.5 316.7 455.3 303.1 457 295.1 455.3 282.8 455.3 286 460.7 282.3 464.1 281.5 469.2 287.1 467.2 289.1 461.7 295.4 460.4 338.2 475 377.2 493.4 418.6 509.4 422.4 503.7 423.5 495.1 424.8 486.8 394 476 357 471.5 328 459.1 323.8 458.7 317.2 460.8 318 455.3 356.8 460.1 389.7 474 426.1 481.8 428.6 470.6 429.8 459.2 429.7 447.8 386.6 445.8 355.1 442.9 311.5 441.5 315.1 434.7 325 437.9 331.7 437.9 367.3 437.7 397.3 441.5 429.7 442.9 432.7 440 429.2 430.7 432.2 427.8 437.7 452.8 429.4 492.8 419.7 514.6 402.9 506.7 382.4 500.9 363.1 492 361.2 491.1 359.1 488 356.8 486.9 342.8 480.7 326.5 478.4 314 473.1 310.7 471.7 308.5 467.9 305.1 466.8 296.9 464.1 292.3 464.3 288.8 470.6 326.9 492.9 362.7 517.5 400.7 539.8 409.5 536.2 409.3 523.3 415.8 517.2 418.4 527.1 407.1 537.2 402 546.1 390.4 565.9 376.5 588 356.7 598.9 319.7 558.7 290 511.3 254.9 469.3 248.4 471.7 244.7 475.3 238.5 475.7 226.2 476.3 217.6 463.8 209.6 468.1 209.2 474.4 215.4 464.2 215.9 470.6 190.1 517.8 168.1 568.7 143 616.5 139.6 606.1 150.1 597.8 154.3 588.9 171.6 551.7 191 510.7 209.6 473.1 179.4 510.3 151.5 561.2 121.9 603.7 131.7 615 148 619.5 162.2 626.4 184.9 578.7 196.8 520.1 220 472.8 205.4 521.1 182.7 578.9 168.4 627.5 173.5 631.3 181.5 632.1 189.9 632.6 203.8 583.2 212.2 524.5 223.8 476.5 218.8 527.7 203.7 583.7 194.9 631.3 200.5 633.2 205.4 635.9 213.7 635.1 221.1 593.2 222.6 530.9 228.8 480.3 230 529.1 222.2 584.7 217.5 635.1 223.2 638.4 227.6 635.7 236.4 636.3 238.7 593.5 235.3 539.7 233.9 495.4 233.5 486.2 232.5 482.7 237.4 477.8 238.1 525.1 241.5 589.7 241.2 633.8 242.5 637.4 249.7 635.4 250 640.1 204.8 651.3 147.6 628.1 113 608.7 90.3 589.4 70.1 567.4 52.6 543.2 52.3 540.1 51.4 537 49.9 534.2 48.4 531.4 46.3 528.9 43.9 526.9 65.7 581.3 113.8 620.4 174.6 640.1 210.7 649 248.5 648.4 284.4 638.5 320.3 628.6 353 609.7 379.5 583.5 382.2 582.4 383.8 580.2 388.3 581 386.2 576.8 389.1 576.7 389.5 572.2 421 531.7 445.6 474 435.9 406.1 430.8 368 409.9 337.6 394.7 308.1 372.4 283.1 345.3 262.8 315.5 245.2 322.1 243.6 331.3 250.5 339.4 255.2 360.2 267.5 385.8 288.6 401 308.1 407 315.9 411.7 327 417.3 334.5 428.9 349.7 437.1 380.5 441.2 403.7 459.9 510.5 398.4 604 310.5 636.5 321 643.7 339 639.4 353.3 639.1 390 638 433.5 638.4 475.2 639.1 454.5 647.6 419 648.3 391 650.4 388.8 650.4 385.5 653.1 383.5 652.9 350.6 649.5 296.9 663.6 254 651.6 197.7 657.2 154.1 640.6 114.5 620.2 115.4 615.9 109.3 618.5 110.9 613.9 40.2 575.7-1.1 468.4 31.4 374.8 32.3 372.3 38.6 375.1 39 372.3 40.2 368.5 36.2 370.1 33.9 369.8 47.8 317.3 85 288.3 120.7 257.8 143.1 246.4 166.7 237.5 191.1 231.3 195.4 231 201.2 232.3 203.6 230.1 205.9 229 206 225.7 207.4 223.8 206.6 217.1 199.5 216.7 196.1 212.5 199.7 207 199.7 205.7 197.4 198.6 203.5 196.7 208.9 192.7 212.5 187.3 208.9 176.3 201.7 164.3 213.7 157.1 224.4 154.8 221.1 173.8 222.5 182.1 233.2 178.5 237.3 168.4 243.9 160.7 230.7 140.9 218.1 120.5 196.3 109.3 187.6 96.1 179.9 82.3 173.5 67.9 138.4 77.2 81.8 41.8 108.1 7.5 113 1.1 125.8-1.7 139.5 1.1 145.6 7.5 154.6 8.5 161 13.7 166.7 18.4 168.1 28.4 177.3 28.8 176.3 31.3 176 34 176.4 36.7 176.8 39.3 178 41.8 179.8 43.9 185 41.2 189 36.7 191.1 31.3 189.3 28.6 182.3 30.8 178.4 30 187.6 22.7 204.6 23.3 216.1 23.7 240.3 24.7 262.5 37.1 279 50.2 298.1 65.3 312.4 78.2 325.4 103 335.1 121.3 347.3 141.2 349.3 163.4 351.2 184.5 332 204.3 330.4 221.3 333.4 228.4 341.4 227.3 346.8 230.1 370.9 242.5 390.3 262 407.1 281.7 457.1 326.3 465.8 405.2 478.8 484.3 513.3 476 545.3 470.5 571.8 489.3 576.7 493.6 581.3 498.2 585.6 503.1 597.9 516 610.6 539.2 612 559.7 613.4 578.9 608.5 587.5 599.5 603.8 595.5 610.9 593 620.4 586.9 626.4 579.7 633.4 568.3 636 563 645.3 569.5 645.8 570.4 645.3 570.5 641.6 572.9 642.6 575.6 643.2 576.8 645.3 594.7 642.3 612.9 641.9 630.9 644.1 652.3 647.1 676.4 645.9 688.7 656.7 667.5 657.7 642.3 656.7 617.1 656.7 593.9 656.7 570.4 654.4 547.9 654.1 543.9 655.2 545.3 650.9 542.9 650.4 521.8 652 500.7 648.6 481.3 640.3 464.4 624.2 441.5 606.8 437.3 576 433.2 546.3 443.9 515.6 466.2 500.5 450.7 519 436.8 548.2 441 576 446 607.9 473.2 636.2 501.4 642.7 579.3 660.6 628.5 577.3 590.6 523.2 591 535.2 599.7 544.6 600.7 558.4 601.4 573.1 598 587.7 590.9 600.6 583.8 613.5 573.2 624.1 560.5 631.4 564.5 625.2 561.4 623.6 559.4 617.7ZM284.1 316.9C286.9 319.8 289.1 323.2 290.4 327 307.3 310.4 315.6 285.1 331.9 267.9 319.7 265.1 315 254.6 300.5 254.1 294.8 271.9 259.4 292.4 281.6 310.7 293.2 296.7 298.5 276.4 308 260.4 304.3 278.4 292.3 299.1 284.1 316.9ZM159.7 31.3C158 38.8 149.6 36 148.3 41.3 152.4 47.8 163.6 47.1 169.7 51.4 169.7 55.6 169.2 62.4 159.7 60.2 158.5 52.2 150.3 51.2 147.1 45.1 140 46.7 137.4 54.3 128.3 50.2 131.8 56.1 147.4 63.3 157.2 64 162.9 64.7 168.7 63.4 173.5 60.2 178.7 45.7 167.7 29 158.4 21.2H155.9C154.6 27.1 160.9 25.4 159.7 31.3ZM247.6 60.2C251.2 62.8 255.2 57.6 256.5 53.9 251.4 53.9 251 58.5 247.6 60.2ZM279.1 92.9C285 90.9 284.7 92.4 286.6 96.6 287 93.7 290.5 93.8 291.6 91.6 287 93 287.6 89 285.4 87.8 285.5 91.7 279 89.3 279.1 92.9ZM277.8 111.7C278.9 117 284.2 117.9 284.1 124.3 258.8 142.2 246 172.5 218.7 188.6 219.7 193.9 225.3 194.6 223.8 202.5 232.2 200.1 234.5 192.6 240.1 187.4 262.1 167.4 295 155.2 310.5 132 309.8 120 307.2 108.1 303 96.8 289.8 97 284.6 105.2 277.8 111.8V111.7ZM225 211.2C238.1 208.7 250.4 194.7 260.2 184.8 260.3 183.8 260.1 182.8 259.7 181.9 259.2 181 258.5 180.3 257.7 179.8 246.3 189.8 233.8 198.6 225 211.2ZM196.3 237.6C177.3 253.9 191.5 273.4 198.8 293 206.7 314.4 205.1 337.6 211.4 357.3 219.8 355.3 228.2 352.7 236.4 349.8 249.2 317.9 227.6 294.9 217.5 274.3 219.6 268.4 225.8 266.6 227.6 260.4 220.8 249 211.7 240.1 196.3 237.6ZM118.2 269.1C136.8 255.1 162.7 248.2 186 238.9 158 243.5 134.3 252.5 118.2 269.1ZM173.5 250.2C175.4 263.9 181.2 273.5 187.3 282.9 181.4 270.6 183.3 259.5 179.8 249 180 251.7 175.3 249.5 173.5 250.2ZM153.5 260.3C167.3 285.9 183.3 310.3 201.1 333.3 202.5 296.9 176.6 283.1 168.4 252.7 163 254.3 158 256.9 153.5 260.3ZM230.2 284.2C229 270.4 248 264.9 242.7 255.2 236.9 262.7 213.3 273.7 230 284.2H230.2ZM132 271.5C154.2 301.8 178.2 330.8 203.7 358.3 206.4 350.8 203.1 346.1 201.2 338.2 200.5 338.3 199.8 338.3 199.2 338.1 198.5 337.9 197.9 337.5 197.4 336.9 183.7 323.5 174.2 299.6 166 285.4 156.2 281.3 155.8 267.9 148.4 261.5 143.3 265.3 136.9 267.9 132 271.5ZM230 289.4C232.6 293.4 235.6 297.2 238.9 300.6 241.9 292 243.3 281.6 246.4 273 237.6 266.2 234.9 283.9 230 289.4ZM240.1 309.5C243.7 313 244 319.9 248.9 322 256.4 307.5 262.7 292.3 267.7 276.6 261.8 275.3 257.8 272.2 251.3 271.6 247.7 286.5 246.4 296.5 240.1 309.4V309.5ZM101.8 280.4C104 280 106 279.1 107.7 277.8 109.4 276.5 110.9 274.8 111.9 272.9 107.8 274.3 104.3 276.9 101.8 280.4ZM125.7 275.4C118.9 278.2 112.9 282.5 108.1 288 128.7 306.8 150.2 324.7 168.4 345.8H173.5C173.5 347.4 171.9 347.6 172.2 349.6 185.2 355.6 189 370.6 202.4 376.1 204 372.3 202.4 370.5 203.6 364.7 174.9 337.7 155.1 301.7 125.7 275.4ZM93 288C96.3 287.8 101.8 283.4 99.3 281.7 98.1 284.6 93 283.8 93 288ZM103.1 290.5C99.5 296.1 92.7 298.6 86.7 301.8 99.6 317.3 117.3 328.2 133.1 340.8 149 353.4 163.2 368 180.9 376.1 181.8 382.6 194.5 382.9 190.9 389.9 184.3 384.8 175.7 381.2 167.1 374.8 160.2 369.8 155.2 361.3 148.2 355.9 140.5 350 130.3 346.6 123.2 340.8 121.9 339.8 120.3 335 118.2 333.3 114.3 330.1 87.6 309.1 84.2 309.4 76.8 310 72.5 324.7 70.4 329.5 81.9 332.2 87.3 341.1 99.3 343.3 109.6 354.1 124.3 360.3 138.3 367.2 149.6 379.8 175 385.1 182.3 397.5 140.9 378.5 107.5 351.5 65.4 333.2 60.6 340.4 56.4 347.9 52.8 355.8 65.6 358.1 77.8 366.5 91.8 372.2 113.8 381.1 139.3 387 162.2 396.1 168 398.4 170.6 402.3 173.5 402.4 184.2 402.7 197.8 391.6 199.9 378.5 164.7 352.1 139.2 316 103.1 290.5ZM242.6 354.8C240.9 349.6 245.6 344.6 242.6 342.2 235 359.6 225.6 375.1 232.5 395.1 240 385.7 236.1 365.2 243.9 356.1 242.4 373.6 240.3 379.6 238.9 397.6 250.3 390.2 250.1 371.1 259 361.1 256.1 377.6 246.8 398.4 240.1 415.2 238.1 415.2 239.1 412 236.3 412.7 235.6 417.2 239.9 416.5 243.9 416.5 250.4 402 256.2 386.8 266.5 376.2 266.5 377.5 267.5 377.7 267.8 378.7 261 389.1 255.1 400 250.1 411.4 259.6 407.4 263.3 391.1 272.8 391.3 266.9 402 257.7 409.7 251.4 420.2 256.3 422.8 257.4 429.3 261.4 432.8 266 431.5 268.6 428.4 274 427.8 275.5 423.7 269.9 426.8 271.4 422.8 273.3 417.9 279.7 417.5 282.8 414 279.4 408.1 278.4 399.9 275.2 393.8 275.2 389.5 281.7 391.9 281.5 387.5 277.6 384.4 274.8 391.8 272.7 385 276.8 369.3 304.1 356 291.6 339.7 283.5 349.8 278.9 369.7 267.7 372.4 271.8 356.9 299.1 338.4 281.5 324.6 273.2 335.7 272.7 349.1 261.4 358.6 260.5 345.7 275.2 330.3 279.1 314.4 275.1 309.8 271.7 304.7 269 299.3 257 306.4 258.9 327.8 248.9 337 246.3 336.7 248.6 331.4 245.3 332 245.7 335.6 251.2 351.1 242.7 354.7L242.6 354.8ZM282.8 381.2C292.8 381.5 296.3 375.5 301.7 371.2 301.1 365.8 303.6 357.5 297.9 357.3 292.9 365.1 284.6 369.9 282.8 381.1V381.2ZM212.5 363.6C217.5 362.4 225.3 363.9 226.3 358.6 220.1 358.5 212.6 357.2 212.5 363.5V363.6ZM42.8 383.6C75.8 393.8 113 399.7 149.7 406.2 154.2 410.4 166.1 412.3 168.5 405 129.3 388.8 90 375.9 50.4 359.7 48.1 368 44.4 374.8 42.8 383.6ZM212.5 372.3C215.3 370 225.7 368.7 222.6 364.7 221.3 369.3 212.4 366.4 212.5 372.3H212.5ZM210 377.3C210.6 383.3 217.8 377.6 218.8 376.1 214.7 375.3 212.9 376.9 209.9 377.3H210ZM206.4 386.1C212.2 389.2 215.7 384 220.2 382.3 217.7 381.5 208.5 382.9 206.2 386.1H206.4ZM285.6 387.4C290.2 391 295.6 386.2 296.9 382.3 290.8 381.8 288.8 385.3 285.5 387.4H285.6ZM171.4 418.8C136.2 404.2 85.3 401 40.6 389.9 40.4 399.1 34.2 402.5 37.1 411.3 96.8 415.9 153.4 426.7 210.5 425.2 194.6 424.4 188.3 414.2 171 418.8H171.4ZM284.5 406.2C290.9 406.7 296.3 406.2 297.1 401.2 291.2 404.4 284.1 398.1 284.1 406.2H284.5ZM196.3 418.8C202.3 419.6 208.3 418.7 213.9 416.3 214.8 412.5 211.7 412.7 212.6 408.8 204.7 409.8 195.6 409.5 196.3 418.8ZM218.9 416.3C223.5 426.1 229.8 431.5 243.9 428.9 246.5 432 248.4 435.6 249.5 439.5 250.6 443.4 250.8 447.5 250.2 451.5 245.4 455.1 244.5 458.5 238.9 459.1 222.1 461 226 442.8 218.8 433.9 209.6 443 217.7 460.8 225 465.4 259.2 478.9 271.4 424.3 237.6 420.1 232.6 419.7 231.3 423 226.3 422.6 225.2 418.3 225.9 411.9 220 412.5 219.8 414 220.2 416.1 218.7 416.3H218.9ZM229 418.8C232.9 419.4 233 416.1 232.5 412.5H227.5C227 415.6 229.8 415.3 228.8 418.8H229ZM460.3 417.6V412.5H456.5C456.8 415 456.8 418 460.1 417.6H460.3ZM35.2 416.3C34.4 416.3 33.7 416.3 33.9 417.6 33 424.2 31.4 433.9 33.9 440.2 88.9 442.8 140.3 435.5 186 433.9 191.6 433.9 202.1 431.1 204.9 437.7 142.8 443 96.1 442.1 32.7 445.3 34 454.6 32.3 461.3 35.2 470.3 82 463.1 142 451.1 191.1 442.6 199.2 441.1 211.2 441.5 212.5 431.3 158.2 430.8 95.2 420.4 35.2 416.3ZM231.5 437.8C229.7 443.2 228.4 445.7 231.5 450.3H240.3C241.4 446.8 244.3 445.1 243.9 440.3 239.1 437.6 237.9 436.3 231.3 437.7L231.5 437.8ZM26.4 456.6C27.3 452.8 28.2 442.5 23.9 440.2 23.8 445.8 24.6 451.3 26.4 456.6ZM76.7 564.8C84.6 569.9 87.2 580.3 96.8 583.7 112.2 564.3 130.2 547.4 144.6 527.1 168.7 508 183.6 479.7 207.4 460.4 174.1 505.8 133.4 544 99.3 588.7 104.9 594 112.2 597.7 118.2 602.5 147.9 553.9 182.2 509.7 211.2 460.4 207.6 455 204.5 450.2 208.7 442.8 150.3 452.7 94.8 465.5 36.5 475.5 38.2 484.3 37 495.8 42.8 500.5 66.6 491.2 89.5 481 116.9 475.5 144.9 463.3 173.9 453.6 203.6 446.5 152.8 468.2 95.9 483.8 44 504.4 43.4 518.5 50.7 524.6 56.6 532.1 103.4 507.1 150.8 476.3 197.4 455.4 152.5 484.7 103 509.4 57.8 538.4 65 544.3 66.4 555.9 75.4 559.9 107.3 534.5 139.1 509.3 169.7 484.4 180 475.9 188.6 463.5 202.4 459.4V461.9C160.8 496.3 118.6 530.3 76.7 564.8ZM266.5 451.5C269.4 454.1 271.7 457.2 276.6 457.8 270.9 452.8 280.6 450.7 275.3 447.8 274.3 451 266 446.9 266.5 451.5ZM275.3 471.5C275.3 465.7 272.2 459.8 262.7 460.2 263.6 463.1 265.2 465.6 267.5 467.6 269.7 469.6 272.4 471 275.3 471.5ZM309.2 534.5C329.1 550.7 337.8 577.9 358.3 593.6 366.8 587.6 374.5 580.4 380.9 572.1 339.3 537 300.9 498.7 257.7 465.2 273 490.3 295.2 508.4 309.2 534.6V534.5ZM28.9 478C28.9 474.9 28 471.8 26.4 469.2 25.6 470.7 25.4 472.4 25.8 474.1 26.3 475.7 27.4 477.1 28.9 478ZM282.8 471.5C283.4 475.5 277.1 472.5 276.6 475.3 313.2 506.2 349.1 537.8 384.7 569.7 389.3 560.9 396.6 554.8 399.7 544.7 360.6 520.5 322.2 495.6 282.8 471.5ZM30.2 487.9C29.9 484.3 31.3 479.3 27.7 479.1 27.4 483.2 27.6 486.8 30.2 488.1V487.9ZM485.2 491.5C499.5 488.3 513.5 484.9 525.4 482.7 543.6 488 562.3 492.8 574.5 504.1 576.9 510.1 580.3 515.1 587 516.7 577 489.7 519.2 469.1 485.4 491.8L485.2 491.5ZM40.2 517.9C37.9 507.6 35.7 497.2 30.2 490.2 32.8 500.6 32.8 513.1 40.2 518.2V517.9ZM506.8 494.3C511.9 510.2 516.4 526.7 520.6 543.4 523.9 543.4 528.5 544.6 526.9 539.6 527.4 536.1 522.2 542.8 521.9 538.4 519.9 526.1 521.9 506.7 519.3 491.9 512.8 490.5 512 494.7 506.8 494.3ZM525.4 535.9C526.9 535.8 528.4 536.2 529.7 536.8 531 537.5 532.1 538.5 533 539.6 539.5 526 543.5 512.1 550.6 496.8 546.1 496 542.2 494.7 538 496.8 535 510.3 535.9 520.4 530.5 532 527.9 514.7 533.4 507.5 535.5 494.3 533.2 491.5 525.2 494.5 522.9 491.7 525.3 506.2 524.1 523.7 525.4 535.9ZM512.9 543.4C517.7 529.6 503.9 509.3 504.1 495.6H494C493.4 513 511.2 532.3 512.9 543.4ZM506.8 537.1C498.9 526.1 496.5 509.6 485.4 501.9 488 515.8 495.6 528.3 506.8 537.1ZM553.2 501.9C547.4 516.2 540.3 529.3 535.6 544.7 548.9 535.4 553.7 517.5 564.5 505.7 560.6 504.4 558.8 501.2 553.2 501.9ZM543.1 547.2C554.6 537.7 565.5 527.6 575.8 517 575.4 515.1 574.5 513.4 573.2 512 571.8 510.7 570.1 509.8 568.3 509.4 558.3 520.9 549.8 533.5 543.1 547.2H543.1ZM461.4 524.5C468.9 526.6 473.1 532.1 482.8 532.1 482.8 527 475.3 524.5 479 519.5 472.6 518.6 473.6 515.1 470.3 513.2 468.4 518.2 460.7 517.2 461.3 524.5H461.4ZM578.2 520.7C563.9 531.1 552.3 550 537.9 556 544.4 561.7 552.2 548.9 558 545.9 566.8 539.6 578.2 535.9 585.7 528.3 583.8 525.3 582.6 521.6 578.2 520.7ZM496.4 548.4C488 536.9 474.8 535 460 528.3 457.7 530.8 456 533.8 455 537.1 468 541 483.8 548.6 496.5 548.4H496.4ZM584.4 533.3C572.3 543.8 555.9 550.1 545.5 562.3 561.1 557.8 577.4 554 593.2 549.7 592.4 542.3 590.6 535.6 584.5 533.3H584.4ZM448.8 542.1C451 547.3 448 550.3 450.1 556 468.8 552.4 492.9 563.5 502.9 554.7 481.2 554.8 467.8 540.7 448.8 542.1H448.8ZM531.8 547.2C530.5 551 534.5 549.4 536.8 549.7V545.9C535 545.7 533.2 546.1 531.8 547.2ZM520.4 568.6C525.5 569.9 526 566.6 528 564.8 527.5 558.1 516.7 555.1 514.1 554.7 518.2 557.3 518.4 563.8 520.4 568.6V568.6ZM541.8 567.4C542.6 566.2 544.7 562.7 540.6 563.6 538.5 566.1 539.2 571.4 538.1 574.9 554.9 579.8 574 582.5 589.6 588.7 593.8 586.2 594.6 580.4 595.9 574.9 579.5 570.2 555.3 580.5 543.1 571.1 556.9 566.9 576.8 574 595.9 569.9 596.4 564.4 596.4 558.9 595.9 553.5 576.4 556.6 562 564.8 541.8 567.3L541.8 567.4ZM448.8 561.1C450.2 564.6 449.9 570 451.3 573.6 467.2 572.2 488.4 563.1 501.6 567.4 486.5 572.4 469 575 452.6 578.7 454.4 584.9 453.6 593.6 460.1 595 474.4 584.9 498.9 578.5 504.1 563.6 485.4 561.8 465.5 557.8 448.8 561L448.8 561.1ZM460.1 602.6C466.1 603.4 465.4 610.7 471.4 611.4 473.8 610 474.1 606.5 476.5 605.1 477.4 604.8 477.9 604 477.7 602.6 486 599.7 490.5 589.5 495.3 583.7 498.1 580.1 505.5 577.9 501.6 574.9 487.7 584 472.1 591.5 460.1 602.5L460.1 602.6ZM505.3 578.7C494.6 591.5 483.4 603.7 472.7 616.4 477.5 618.7 480.2 623.2 486.5 624 493.1 616 494.4 602.6 501.6 595.1 502.2 593.5 502.7 581.1 509.1 581.2 503.1 598.4 496 613.4 490.3 627.7 494.3 630.3 497.4 634.1 505.3 632.7 508 612.4 508.9 597.2 511.6 581.1 509.2 580.6 509.3 577.6 505.3 578.7ZM582 606.4C584.5 601.7 588.6 598.8 589.6 592.5 572.9 587.4 554.8 583.8 538 578.7 550.5 590.1 566.9 597.5 582 606.3V606.4ZM507.8 635.3C510.9 637.7 517.9 636.1 522.9 636.6 521.9 618.7 518.2 603.6 517.9 585H514.1C513.9 599.8 509.1 621.6 507.8 635.3V635.3Z" class="a"/><path d="M644.9 689.5C646.1 694 639.4 690.7 638.6 693.2 639.4 696.2 646.3 693 647.4 695.7 616.9 704.3 587.8 696.7 556.9 700.7 556 696.1 558.9 695.2 563.2 695.7 555.4 690.5 540.3 694.9 533 692.1 564.4 686.1 606.2 692 644.9 689.5Z" class="a"/><path d="M64.2 675.5C58.5 681.5 43.6 678.4 36.6 683.1 47.6 687.6 56.6 682.1 69.3 681.8 80.9 681.6 92 685.7 103.2 685.6 120.6 685.4 138.3 679.5 161.1 679.3 176 679.3 190 683.4 205 681.8 218.2 680.4 237.5 677.7 255.3 680.6 225.8 685.2 195.9 686.4 166.1 684.3 147.1 683.2 128.7 687.9 108.3 689.4 88.7 690.6 68.1 686.2 41.6 690.6 52 698.4 64.9 691.2 76.9 690.6 86.6 690.2 96.5 693.7 105.8 693.1 110.9 692.9 115 689.6 119.6 689.4 150.3 687.1 181.3 689.8 213.9 689.4 236.4 706.1 299.3 683 325.8 699.4 330 698.3 331.3 694 333.3 690.6 356.6 683 372.6 704.3 388.6 689.4 413.6 691.4 436.8 689.6 459 690.6 459.2 697.3 451 690.9 447.7 695.6 458.8 699.4 486.9 693.9 498 698.2 479.6 705.3 458.5 702.2 438.9 702 373.3 701.2 294.8 702 229 707 225.8 707.2 222.4 704.7 218.9 704.5 203.9 703.6 185.3 708.2 168.6 704.5 137.9 697.5 89.9 706.6 53 703.2 54.3 699 49.1 701.2 46.7 700.7 47 698.9 50.4 700.2 50.5 698.2 42.1 695.2 27.6 698.4 20.3 694.4 20.1 690.8 23.4 690.8 26.6 690.8 18.3 687 9.4 689.3 0.2 688.3 0.9 680.6 14.5 685.9 17.8 680.7 15.7 676.5 2.7 683.2 2.7 677 19.2 673.9 43.9 675.7 64.2 675.5ZM20.1 680.6C25.1 680.2 29 683.7 31.4 679.3 28.6 679.7 17.1 678.2 20.1 680.6ZM164.7 691.9C145.1 693.1 161.1 697.2 171 695.5 171.6 691.7 168.3 691.6 164.7 691.9ZM199.9 695.5C202.8 696.4 209.3 698.7 208.7 693 205.1 693.4 200.1 692.1 199.9 695.6L199.9 695.5Z" class="a"/></g><defs><clipPath><rect width="689" height="707" fill="white"/></clipPath></defs></svg>